<?xml version="1.0" standalone="no"?>
<!DOCTYPE svg PUBLIC "-//W3C//DTD SVG 1.1//EN" "http://www.w3.org/Graphics/SVG/1.1/DTD/svg11.dtd" >
<svg xmlns="http://www.w3.org/2000/svg">
<metadata></metadata>
<defs>
<font id="actorregular" horiz-adv-x="1026" >
<font-face units-per-em="2048" ascent="1638" descent="-410" />
<missing-glyph horiz-adv-x="468" />
<glyph unicode="&#xfb01;" horiz-adv-x="1228" d="M45 897v133h188q0 111 26.5 200.5t71 148.5t104.5 98.5t124.5 57t134.5 17.5q180 0 389 -133l-73 -123q-174 113 -314 113q-81 0 -140 -29t-93 -82t-49.5 -119t-16.5 -149h289q94 0 192.5 5t150.5 11l52 5v-1051h-163v897h-519v-897h-163v897h-191z" />
<glyph unicode="&#xfb02;" horiz-adv-x="1228" d="M45 897v133h188q0 277 125.5 410t356.5 133q84 0 175.5 -15.5t141.5 -31.5l49 -15v-1511h-163v1399q-80 31 -201 31q-82 0 -141 -22.5t-92.5 -57t-53.5 -89.5t-26 -107.5t-7 -123.5h258v-133h-256v-897h-163v897h-191z" />
<glyph horiz-adv-x="0" />
<glyph horiz-adv-x="682" />
<glyph unicode=" "  horiz-adv-x="468" />
<glyph unicode="&#x09;" horiz-adv-x="468" />
<glyph unicode="&#xa0;" horiz-adv-x="468" />
<glyph unicode="!" horiz-adv-x="509" d="M131 121q0 50 35 85.5t86 35.5q52 0 89.5 -35.5t37.5 -85.5q0 -51 -37 -86t-90 -35q-51 0 -86 35t-35 86zM150 1491l208 22l-34 -1140h-134z" />
<glyph unicode="&#x22;" horiz-adv-x="696" d="M123 1051v501h164v-501h-164zM410 1051v501h163v-501h-163z" />
<glyph unicode="#" horiz-adv-x="1171" d="M115 469v143h168l51 152h-184v143h233l92 264l143 -47l-75 -217h248l94 275l143 -47l-80 -228h121v-143h-170l-51 -152h141v-143h-190l-101 -291l-139 55l80 236h-248l-102 -301l-139 55l83 246h-118zM440 612h248l53 152h-247z" />
<glyph unicode="$" horiz-adv-x="1101" d="M102 39l41 166q18 -8 49 -19t118 -30t163 -19q84 0 147 9t114.5 30t78.5 60t27 94q0 48 -25 90t-67 74.5t-96.5 62.5t-115 59.5t-120.5 60t-114.5 69t-96.5 83t-67 104.5t-25 130q0 135 99.5 230.5t266.5 117.5v191h144v-189q76 -3 152 -12.5t113 -18.5l38 -8l-21 -170 q-162 47 -336 47q-150 0 -216 -44.5t-66 -143.5q0 -46 25 -86.5t67 -72.5t96.5 -62t114.5 -59t120.5 -60t115 -68.5t96.5 -80t67 -99.5t25 -123q0 -72 -22.5 -129.5t-58 -95.5t-89.5 -67t-105 -45.5t-116 -30.5v-191h-144v180h-6q-96 0 -188.5 16.5t-137.5 32.5z" />
<glyph unicode="%" horiz-adv-x="1566" d="M94 1106q0 26 3.5 53.5t13.5 61.5t25 64t40 59.5t57 50.5t78 34t101 13q72 0 128 -25.5t87.5 -63t51 -86t26 -87t6.5 -74.5t-6.5 -74.5t-26 -87t-51 -86t-87.5 -63t-128 -25.5q-55 0 -101 13t-78 34t-57 50.5t-40 59.5t-25 64t-13.5 61.5t-3.5 53.5zM170 4l1063 1518 l131 -99l-1063 -1515zM240 1106q0 -51 13 -94.5t51 -77t97 -33.5q162 0 162 205t-162 205q-59 0 -97 -33.5t-51 -77t-13 -94.5zM860 309q0 26 3.5 53.5t13.5 61.5t25 64t40 59.5t57 50.5t78 34t101 13q72 0 128 -25.5t87.5 -63t51 -86t26 -87t6.5 -74.5t-6.5 -74.5t-26 -87 t-51 -86t-87.5 -63t-128 -25.5q-55 0 -101 13t-78 34t-57 50.5t-40 59.5t-25 64t-13.5 61.5t-3.5 53.5zM1006 309q0 -51 13 -94.5t51 -77t97 -33.5q162 0 162 205t-162 205q-59 0 -97 -33.5t-51 -77t-13 -94.5z" />
<glyph unicode="&#x26;" horiz-adv-x="1431" d="M111 332q0 48 12 93.5t29.5 81t48 72t55 60.5t63.5 54t61.5 45t59.5 39q12 7 17 11q-12 14 -43.5 51t-46.5 56t-41.5 54.5t-40 62t-29.5 62t-22.5 72t-6.5 75.5q0 48 13 92.5t43.5 86t74.5 72.5t112 49.5t151 18.5q108 0 183.5 -24.5t116.5 -70.5t58.5 -100t17.5 -124 q0 -69 -30 -138.5t-80.5 -127t-103 -102.5t-111.5 -83q183 -197 354 -354q103 151 166 348l135 -45q-68 -233 -190 -404q33 -30 133.5 -119.5t154.5 -138.5l-90 -100q-156 123 -291 244q-218 -228 -518 -228q-187 0 -301 92.5t-114 266.5zM274 326q0 -83 66.5 -146 t185.5 -63q230 0 406 184q-221 202 -383 383q-45 -31 -68.5 -48.5t-61.5 -48.5t-59 -56t-43.5 -58.5t-32.5 -70t-10 -76.5zM391 1221q0 -39 9 -74.5t21 -63.5t41 -68t52.5 -68.5t71.5 -84.5q108 74 178 166t70 189q0 92 -46.5 136t-166.5 44q-112 0 -171 -46.5t-59 -129.5z " />
<glyph unicode="'" horiz-adv-x="409" d="M123 1051v501h164v-501h-164z" />
<glyph unicode="(" horiz-adv-x="686" d="M80 555q0 166 27 313t70.5 257.5t108 209.5t129.5 169t144 134l98 -94q-113 -113 -192 -240t-119.5 -257t-57 -247.5t-16.5 -246.5t16.5 -246.5t57 -247.5t119.5 -258.5t192 -242.5l-98 -95q-479 391 -479 1092z" />
<glyph unicode=")" horiz-adv-x="686" d="M29 -442q113 114 192 242.5t119.5 258.5t57 247.5t16.5 246.5t-16.5 246.5t-57 247.5t-119.5 257t-192 240l98 94q79 -64 144 -134t129.5 -169t108 -209.5t70.5 -257.5t27 -313q0 -701 -479 -1092z" />
<glyph unicode="*" horiz-adv-x="915" d="M98 924l54 153l233 -96l-6 248h164l-8 -248l229 86l55 -154l-235 -73l151 -195l-131 -98l-147 213l-144 -217l-135 94l156 205z" />
<glyph unicode="+" horiz-adv-x="1081" d="M90 451v151h369v369h164v-369h368v-151h-368v-369h-164v369h-369z" />
<glyph unicode="," horiz-adv-x="432" d="M76 -238l69 504h174l-114 -528z" />
<glyph unicode="-" horiz-adv-x="800" d="M127 451v151h547v-151h-547z" />
<glyph unicode="." horiz-adv-x="454" d="M104 121q0 50 35 85.5t86 35.5q52 0 89.5 -35.5t37.5 -85.5q0 -51 -37 -86t-90 -35q-51 0 -86 35t-35 86z" />
<glyph unicode="/" horiz-adv-x="1044" d="M61 -371l768 2112l154 -58l-768 -2111z" />
<glyph unicode="0" horiz-adv-x="1236" d="M100 512q0 111 39.5 210.5t108.5 171.5t166 114.5t207 42.5q146 0 264.5 -72t185 -195.5t66.5 -271.5q0 -147 -66.5 -270.5t-185.5 -196t-264 -72.5q-146 0 -266.5 72.5t-187.5 196t-67 270.5zM274 512q0 -157 94 -266t253 -109q157 0 249.5 109.5t92.5 265.5 q0 159 -92.5 267t-249.5 108q-160 0 -253.5 -108t-93.5 -267z" />
<glyph unicode="1" horiz-adv-x="675" d="M43 930l365 100h100v-1030h-164v842l-268 -51z" />
<glyph unicode="2" horiz-adv-x="995" d="M88 0v78q13 10 34.5 27t84.5 70t120 104.5t126.5 121.5t119.5 130.5t84.5 122t34.5 104.5q0 71 -46 110t-161 39q-74 0 -157.5 -15.5t-130.5 -30.5l-47 -15l-50 131q21 8 58.5 20.5t145.5 33t206 20.5q73 0 133 -13.5t112 -44t81.5 -87t29.5 -134.5q0 -70 -47.5 -160.5 t-115 -169t-135 -147.5t-114.5 -109l-48 -41q161 9 335 9h156v-154h-809z" />
<glyph unicode="3" horiz-adv-x="931" d="M41 -326l51 138q81 -37 145 -52.5t146 -15.5q115 0 192.5 69t77.5 197q0 133 -108 208t-289 77v143q175 0 278 75.5t103 213.5q0 85 -45.5 132.5t-157.5 47.5q-57 0 -119 -8.5t-95 -17.5l-34 -9l-41 134q15 5 42 12.5t108.5 20t161.5 12.5q166 0 260 -80t94 -242 q0 -77 -25.5 -141.5t-66.5 -105.5t-81 -66t-81 -39v-6q116 -41 193 -132.5t77 -228.5q0 -92 -29 -165.5t-74.5 -118t-106 -74t-118 -40.5t-116.5 -11q-91 0 -176.5 18.5t-125.5 36.5z" />
<glyph unicode="4" horiz-adv-x="1175" d="M33 111l762 919h163v-887h144v-143h-144v-399h-163v399h-752zM242 135q244 8 426 8h127v215q0 130 2.5 246.5t4.5 167.5l3 51z" />
<glyph unicode="5" horiz-adv-x="1009" d="M55 -287l56 137q9 -4 51 -24t56 -26t51 -20.5t60 -19.5t56.5 -10.5t65.5 -5.5q156 0 227.5 75t71.5 224q0 266 -263 266q-58 0 -120.5 -12.5t-95.5 -24.5l-33 -12l-80 12l63 758h649v-143h-497l-37 -457q74 23 170 23q196 0 307 -105t111 -305q0 -103 -27 -181.5 t-71.5 -127t-108 -79.5t-128 -42.5t-140.5 -11.5q-59 0 -121 11.5t-108.5 28t-85 33t-58.5 28.5z" />
<glyph unicode="6" horiz-adv-x="1075" d="M104 549q0 120 28.5 225.5t74.5 184.5t113.5 147t135 115t149.5 87t147 63t137 44l51 -145q-516 -160 -633 -477q113 14 234 14q67 0 128.5 -13t119.5 -44t101 -77t69 -117t26 -159q0 -190 -131 -307t-322 -117q-210 0 -319 138.5t-109 437.5zM279 530q6 -214 70 -313.5 t196 -99.5q52 0 98 15t84.5 46t61 86t22.5 129q0 133 -74.5 202t-220.5 69q-56 0 -113 -4t-87 -8l-29 -3q-1 -6 -2.5 -16.5t-4 -42t-1.5 -60.5z" />
<glyph unicode="7" horiz-adv-x="903" d="M61 -315q129 147 209 279t148 296l260 627h-596v143h801v-78l-328 -786q-75 -179 -163 -319t-210 -271z" />
<glyph unicode="8" horiz-adv-x="1126" d="M123 354q0 72 24.5 134.5t68.5 110.5t80 77t83 59q-215 117 -215 309q0 74 24 136t64 104.5t92.5 72.5t109.5 44t115 14q182 0 294 -100.5t112 -270.5q0 -176 -199 -339q42 -22 71.5 -41t63.5 -50.5t55.5 -66t35.5 -84.5t14 -109q0 -84 -25 -150.5t-67 -109t-101.5 -70.5 t-124.5 -39.5t-139 -11.5q-93 0 -169 20.5t-137.5 63.5t-95.5 118.5t-34 178.5zM297 354q0 -107 67.5 -172t196.5 -65q132 0 206.5 65t74.5 172q0 39 -9.5 71t-32.5 60t-47.5 49t-68.5 44.5t-80.5 40.5t-97.5 43q-47 -31 -78 -55.5t-64.5 -62.5t-50 -85.5t-16.5 -104.5z M338 1044q0 -42 16.5 -78t40.5 -61t68.5 -51t81.5 -42.5t98 -41.5q36 30 57.5 52t48 56.5t39.5 76t13 89.5q0 99 -55 163.5t-177 64.5q-109 0 -170 -68.5t-61 -159.5z" />
<glyph unicode="9" horiz-adv-x="1050" d="M82 627q0 195 122 309.5t331 114.5q206 0 317 -143.5t111 -442.5q0 -120 -28 -226t-74 -186t-112.5 -150t-134 -118t-149.5 -90t-148.5 -67.5t-140.5 -47.5l-49 148q260 86 417.5 216.5t215.5 278.5q-113 -16 -234 -16q-84 0 -160 23.5t-141 71.5t-104 131.5t-39 193.5z M256 631q0 -134 75.5 -207.5t219.5 -73.5q56 0 113.5 5t87.5 9l30 5q1 4 2 11.5t3 37t1 65.5q-5 214 -70.5 319t-197.5 105q-52 0 -97.5 -15t-84 -46t-60.5 -86t-22 -129z" />
<glyph unicode=":" horiz-adv-x="501" d="M127 121q0 50 35 85.5t86 35.5q52 0 89.5 -35.5t37.5 -85.5q0 -51 -37 -86t-90 -35q-51 0 -86 35t-35 86zM127 807q0 50 35 85.5t86 35.5q52 0 89.5 -35.5t37.5 -85.5q0 -51 -37 -86t-90 -35q-51 0 -86 35t-35 86z" />
<glyph unicode=";" horiz-adv-x="514" d="M98 -260l70 504h174l-115 -529zM152 809q0 50 34.5 85.5t85.5 35.5q52 0 89.5 -35.5t37.5 -85.5q0 -51 -37 -86t-90 -35q-51 0 -85.5 35t-34.5 86z" />
<glyph unicode="&#x3c;" horiz-adv-x="985" d="M84 594v84l764 358v-155l-531 -256l531 -277v-176z" />
<glyph unicode="=" horiz-adv-x="1183" d="M141 307v144h901v-144h-901zM141 727v143h901v-143h-901z" />
<glyph unicode="&#x3e;" horiz-adv-x="985" d="M137 172v176l531 277l-531 256v155l764 -358v-84z" />
<glyph unicode="?" horiz-adv-x="835" d="M123 1464q82 37 213 37q178 0 295 -101.5t117 -264.5q0 -81 -22.5 -145.5t-59 -104.5t-80.5 -71.5t-88 -53t-80.5 -41t-59 -45t-22.5 -56.5v-245h-164v262q0 51 21.5 89t56 62.5t76.5 45t83.5 44t76 52t56 76t21.5 110.5q0 102 -66 162.5t-175 60.5q-36 0 -75.5 -7.5 t-60.5 -15.5l-22 -7zM131 121q0 50 35 85.5t86 35.5q52 0 89.5 -35.5t37.5 -85.5q0 -51 -37 -86t-90 -35q-51 0 -86 35t-35 86z" />
<glyph unicode="@" horiz-adv-x="1746" d="M113 575q0 193 68 354.5t182.5 266t261.5 162t309 57.5q723 0 723 -651q0 -102 -31 -192t-94 -164.5t-171 -118t-249 -43.5q-14 0 -31.5 30t-33 102.5t-13.5 166.5h-4q-113 -144 -201.5 -216.5t-164.5 -72.5q-88 0 -133.5 66.5t-45.5 179.5q0 242 136.5 395.5 t349.5 153.5q34 0 97 -8.5t109 -16.5l46 -8l-62 -410q-6 -50 -1.5 -96t14.5 -79.5t18 -33.5q61 0 117 22t102.5 65t74 115t27.5 163q0 266 -147.5 387t-431.5 121q-104 0 -203 -29t-185 -87.5t-151 -140.5t-102 -195.5t-37 -244.5q0 -302 146 -438.5t450 -136.5 q86 0 162.5 14t110.5 28l34 15l41 -135q-19 -7 -53 -17t-138 -27t-206 -17q-331 0 -510.5 177t-179.5 537zM647 535q0 -52 14 -97t39 -45q23 0 98 68t150 164.5t86 160.5l21 111q-61 14 -129 14q-52 0 -100.5 -23t-89 -67.5t-65 -118.5t-24.5 -167z" />
<glyph unicode="A" horiz-adv-x="1249" d="M39 0l479 1397h213l479 -1397h-178l-123 373h-567l-125 -373h-178zM395 537h459l-225 696h-6z" />
<glyph unicode="B" horiz-adv-x="1177" d="M180 0v1397h373q219 0 319.5 -81.5t100.5 -250.5q0 -57 -14 -109.5t-34.5 -87.5t-40.5 -61.5t-34 -38.5l-14 -12q239 -94 239 -346q0 -89 -23.5 -160t-75 -129t-143 -89.5t-217.5 -31.5h-436zM352 154h279q132 0 201 68.5t69 187.5q0 237 -285 237h-264v-493zM352 791 h342q4 3 11 9t25.5 28.5t32 48.5t25 69.5t11.5 91.5q0 114 -59.5 159.5t-168.5 45.5h-219v-452z" />
<glyph unicode="C" horiz-adv-x="1243" d="M104 686q0 175 48.5 314.5t136 229.5t206 137.5t259.5 47.5q101 0 204 -15.5t156 -31.5l53 -16l-37 -152q-20 7 -54.5 17.5t-134 27.5t-189.5 17q-95 0 -172.5 -35t-129 -92t-86.5 -133t-50 -155.5t-15 -162.5q0 -165 62 -293.5t165.5 -196t227.5 -67.5q103 0 199.5 14.5 t142.5 28.5l45 14l35 -145q-21 -7 -58 -18t-147.5 -29.5t-216.5 -18.5q-210 0 -358.5 93t-220 251.5t-71.5 368.5z" />
<glyph unicode="D" horiz-adv-x="1464" d="M180 0v1397h449q167 0 300 -42t230 -126t149 -217.5t52 -309.5q0 -175 -56.5 -311t-156.5 -220.5t-231 -127.5t-287 -43h-449zM352 158h277q117 0 213 29.5t172.5 92t119 170t42.5 252.5q0 270 -144 403.5t-403 133.5h-277v-1081z" />
<glyph unicode="E" horiz-adv-x="1155" d="M180 0v1397h856v-158h-684v-446h635v-154h-635v-481h705v-158h-877z" />
<glyph unicode="F" horiz-adv-x="1107" d="M180 0v1397h856v-158h-684v-446h635v-154h-635v-639h-172z" />
<glyph unicode="G" horiz-adv-x="1417" d="M104 711q0 172 55.5 308.5t152 221.5t220.5 129.5t267 44.5q110 0 228.5 -14.5t181.5 -28.5l63 -14l-29 -158q-242 55 -426 55q-132 0 -232.5 -39.5t-162 -113t-92.5 -172t-31 -221.5q0 -121 26.5 -219t72.5 -165.5t111.5 -113t142.5 -66t165 -20.5q83 0 158 13.5 t109 26.5l34 13v375h-256v154h430v-613q-7 -5 -20 -13t-59 -29t-97 -37t-132.5 -29t-166.5 -13q-117 0 -216.5 20t-193.5 71.5t-159 133t-104.5 212.5t-39.5 301z" />
<glyph unicode="H" horiz-adv-x="1411" d="M180 0v1397h172v-604h707v604h172v-1397h-172v639h-707v-639h-172z" />
<glyph unicode="I" horiz-adv-x="532" d="M180 0v1397h172v-1397h-172z" />
<glyph unicode="J" horiz-adv-x="665" d="M43 119q55 10 96.5 22.5t71.5 26.5t50 35t32.5 42t18.5 53.5t8 63t2 76.5v959h172v-961q0 -130 -23.5 -212t-85.5 -130q-125 -97 -319 -121z" />
<glyph unicode="K" horiz-adv-x="1220" d="M180 0v1397h172v-645l586 645h215l-537 -586l619 -811h-215l-522 684l-146 -160v-524h-172z" />
<glyph unicode="L" horiz-adv-x="1021" d="M180 0v1397h172v-1233h635v-164h-807z" />
<glyph unicode="M" horiz-adv-x="1757" d="M145 0l74 1397h219l316 -832l123 -338h4q44 150 116 338l322 832h219l72 -1397h-174l-35 768q-5 118 -7 211t-2 127l1 33h-4q-36 -104 -136 -371l-288 -768h-174l-291 768q-44 117 -77.5 210t-44.5 127l-11 34h-5q6 -49 6 -132q0 -97 -8 -239l-41 -768h-174z" />
<glyph unicode="N" horiz-adv-x="1413" d="M180 0v1397h164l733 -1108h4q-12 202 -12 411v697h164v-1397h-164l-733 1112h-4q12 -205 12 -414v-698h-164z" />
<glyph unicode="O" horiz-adv-x="1556" d="M104 698q0 153 41 277.5t107.5 204.5t156 134.5t181.5 77.5t188 23q99 0 188.5 -19t180.5 -69.5t156.5 -129t107 -207.5t41.5 -294q0 -154 -41 -279t-107.5 -206t-156 -136t-181.5 -78.5t-188 -23.5q-97 0 -188.5 22t-181 76t-156 134.5t-107.5 207.5t-41 285zM299 709 q0 -273 126.5 -422.5t344.5 -149.5q223 0 355 141t132 410q0 272 -126 417.5t-345 145.5q-223 0 -355 -138t-132 -404z" />
<glyph unicode="P" horiz-adv-x="1105" d="M180 0v1397h322q270 0 396 -95.5t126 -316.5q0 -94 -31.5 -169.5t-80.5 -123t-112.5 -79.5t-124.5 -45t-120 -13h-203v-555h-172zM352 709h189q150 0 229.5 62.5t79.5 217.5q0 65 -15.5 110.5t-43.5 73.5t-76 43.5t-102 21t-134 5.5h-127v-534z" />
<glyph unicode="Q" horiz-adv-x="1554" d="M104 698q0 153 40.5 277.5t107 204.5t156.5 134.5t183.5 77.5t192.5 23q69 0 134.5 -9.5t133 -33.5t125.5 -60t109.5 -93.5t87.5 -130t57 -173t21 -219.5q0 -134 -31.5 -246t-87.5 -190.5t-122 -132.5t-144 -88q8 -5 101 -63.5t156 -87.5t110 -29q80 0 151 47l76 -133 q-133 -78 -236 -78q-60 0 -158.5 45t-176.5 93.5t-222 143.5q-35 -4 -84 -4q-65 0 -129 10t-132 34t-128 60.5t-114 94.5t-93 131.5t-61.5 174.5t-22.5 220zM299 709q0 -273 126.5 -422.5t344.5 -149.5q223 0 355 141t132 410q0 272 -126 417.5t-345 145.5q-223 0 -355 -138 t-132 -404z" />
<glyph unicode="R" horiz-adv-x="1185" d="M180 0v1397h344q94 0 168.5 -12t138 -40.5t105 -73.5t65 -113.5t23.5 -158.5q0 -70 -15.5 -130t-40.5 -100t-54.5 -72t-59.5 -50.5t-55 -30.5t-41 -16l-15 -4v-4q25 -27 56 -68l395 -524h-203l-405 555h-234v-555h-172zM352 709h203q149 0 220.5 72t74.5 190 q0 68 -14.5 117t-40 79t-68.5 47t-90.5 23t-114.5 6h-170v-534z" />
<glyph unicode="S" horiz-adv-x="1077" d="M92 39l41 166q18 -8 49 -19t118 -30t163 -19q366 0 366 193q0 50 -25 92t-67 74.5t-96.5 62t-114.5 57.5t-120.5 58.5t-115 68.5t-96.5 82t-67 105t-25 133q0 70 24 130t75 111.5t142.5 81t215.5 29.5q88 0 179.5 -11.5t138.5 -22.5l47 -11l-29 -166q-162 47 -336 47 q-149 0 -216 -45.5t-67 -142.5q0 -48 25 -89.5t67 -73t96.5 -61.5t115 -58.5t121 -58.5t115 -67t96.5 -79t67 -99.5t25 -124.5q0 -92 -35 -161.5t-88.5 -110t-128.5 -65.5t-143.5 -33.5t-145.5 -8.5q-96 0 -188.5 16.5t-137.5 32.5z" />
<glyph unicode="T" horiz-adv-x="1118" d="M35 1237v160h1048v-160h-438v-1237h-172v1237h-438z" />
<glyph unicode="U" horiz-adv-x="1466" d="M170 481v916h172v-873q0 -385 393 -385q389 0 389 385v873h172v-916q0 -141 -69 -256t-198.5 -182.5t-295.5 -67.5q-269 0 -416 133t-147 373z" />
<glyph unicode="V" horiz-adv-x="1220" d="M37 1397h174l401 -1233h2l396 1233h174l-465 -1397h-217z" />
<glyph unicode="W" horiz-adv-x="1937" d="M57 1397h174l271 -1233h2l358 1233h217l355 -1233h2l268 1233h174l-322 -1397h-217l-368 1231h-2l-371 -1231h-217z" />
<glyph unicode="X" horiz-adv-x="1128" d="M41 0l403 711l-403 686h195l329 -568l328 568h194l-413 -703l416 -694h-199l-336 584l-319 -584h-195z" />
<glyph unicode="Y" horiz-adv-x="1116" d="M25 1397h190l342 -678l344 678h191l-447 -889v-508h-174v508z" />
<glyph unicode="Z" horiz-adv-x="1204" d="M74 0v74l790 1159h-790v164h1065v-70l-797 -1163h778v-164h-1046z" />
<glyph unicode="[" horiz-adv-x="636" d="M152 -516v2134h426v-164h-252v-1806h252v-164h-426z" />
<glyph unicode="\" horiz-adv-x="1040" d="M59 1686l154 53l768 -2112l-154 -53z" />
<glyph unicode="]" horiz-adv-x="636" d="M59 -352h252v1806h-252v164h426v-2134h-426v164z" />
<glyph unicode="^" horiz-adv-x="1363" d="M205 885l481 641l473 -641h-174l-299 420l-299 -420h-182z" />
<glyph unicode="_" horiz-adv-x="1144" d="M121 -135h903v-123h-903v123z" />
<glyph unicode="`" horiz-adv-x="868" d="M205 1454l106 125l353 -256l-70 -92z" />
<glyph unicode="a" d="M61 260q0 77 40 138.5t108.5 100t150 61.5t172.5 30l189 12q0 48 -1 77.5t-5 65.5t-12.5 57t-23 44t-36 34.5t-53 19t-72.5 7.5q-69 0 -146 -11.5t-119 -22.5l-42 -11l-33 142q19 5 53.5 13t133 21t188.5 13q80 0 140 -20.5t96 -54t58 -83.5t30 -101t8 -114v-492 q0 -33 3 -79.5t6 -76.5l3 -30l-158 -16l-20 112q-107 -62 -189 -92.5t-170 -30.5q-142 0 -220.5 70t-78.5 217zM236 260q0 -69 42.5 -106t116.5 -37q92 0 169 31t157 92v233q-141 -6 -215 -16q-146 -19 -208 -65t-62 -132z" />
<glyph unicode="b" horiz-adv-x="1101" d="M145 61v1473l164 18v-610q6 4 17.5 11.5t45.5 26.5t67 33t77.5 26t81.5 12q179 0 295.5 -137t116.5 -398q0 -117 -28 -210.5t-75 -154.5t-111.5 -102t-135.5 -58.5t-150 -17.5q-70 0 -133.5 9t-104 22t-70.5 26t-44 22zM309 152q95 -35 201 -35q93 0 157.5 26.5t101 79 t52 121.5t15.5 164q0 101 -27 189.5t-87 149t-142 60.5q-50 0 -118 -28t-110 -56l-43 -28v-643z" />
<glyph unicode="c" horiz-adv-x="894" d="M92 510q0 112 26 203.5t70 153.5t105 104t129 61t143 19q59 0 122.5 -8.5t97.5 -16.5l34 -8l-33 -137q-115 26 -221 26q-71 0 -125.5 -24.5t-86.5 -63.5t-52.5 -93.5t-27.5 -106.5t-7 -111q0 -102 26 -179t71.5 -122.5t101.5 -67.5t121 -22q52 0 107 8.5t85 17.5l29 9 l33 -138q-123 -41 -275 -41q-234 0 -353.5 126t-119.5 411z" />
<glyph unicode="d" horiz-adv-x="1103" d="M92 508q0 119 33.5 215.5t85.5 156t120 99.5t133 56t128 16q44 0 93.5 -7.5t77.5 -15.5l28 -8v514l163 18v-1366q0 -33 3 -79.5t7 -76.5l3 -30l-158 -16l-16 98q-6 -4 -17.5 -11.5t-45.5 -26.5t-67 -33t-77.5 -26t-81.5 -12q-194 0 -303 139t-109 396zM266 516 q0 -101 27 -189.5t87 -149t142 -60.5q54 0 121 27t107 54l41 27v652q-84 30 -199 30q-83 0 -146.5 -31t-102 -85t-58 -123.5t-19.5 -151.5z" />
<glyph unicode="e" horiz-adv-x="1036" d="M90 508q0 258 134 400.5t345 142.5q97 0 173 -39t123 -106.5t71.5 -154.5t24.5 -188l-31 -90h-662q0 -68 17.5 -128t55 -113t105.5 -84t160 -31q74 0 142 11t100 22l31 12l30 -137q-18 -6 -48.5 -14.5t-118.5 -23t-167 -14.5q-106 0 -191.5 29.5t-152.5 91t-104 167 t-37 247.5zM274 604h517q0 19 -3 47t-17 75.5t-36.5 85.5t-68 66.5t-105.5 28.5q-65 0 -117.5 -24t-83 -59t-51 -78.5t-28 -78.5t-7.5 -63z" />
<glyph unicode="f" horiz-adv-x="696" d="M45 897v133h191q0 285 81.5 403.5t274.5 118.5q74 0 143 -25t111 -63l-72 -123q-88 68 -180 68q-38 0 -68 -10.5t-50 -27t-34.5 -46t-22.5 -57t-12.5 -71.5t-5.5 -79t-2 -88h256v-133h-256v-897h-163v897h-191z" />
<glyph unicode="g" horiz-adv-x="1101" d="M92 508q0 117 32 212.5t82.5 155.5t117.5 100.5t134 57.5t134 17q82 0 212.5 -21.5t149.5 -23.5v-1104q0 -66 -9.5 -120t-37.5 -108t-74 -90.5t-123.5 -59t-181.5 -22.5q-98 0 -191.5 17.5t-138.5 34.5l-44 18l43 143q17 -8 47 -20t112.5 -31.5t151.5 -19.5 q149 0 217 64.5t68 223.5v150q-6 -4 -17.5 -11.5t-45.5 -26.5t-67 -33t-77.5 -26t-81.5 -12q-194 0 -303 137t-109 398zM266 516q0 -101 27 -189.5t87 -149t142 -60.5q54 0 121.5 27t108.5 54l41 27v654q-88 28 -201 28q-83 0 -146.5 -30.5t-102 -84.5t-58 -123.5 t-19.5 -152.5z" />
<glyph unicode="h" horiz-adv-x="1118" d="M147 0v1534l164 18v-651q9 6 24.5 16t60.5 36t88 46t98 36t98 16q168 0 232.5 -84t64.5 -303v-664h-164v645v52t-1.5 46t-4.5 42.5t-8 35t-13 31.5t-19.5 23t-27 18.5t-36 9.5t-46.5 4q-63 0 -149.5 -37.5t-141.5 -74.5l-55 -37v-758h-164z" />
<glyph unicode="i" horiz-adv-x="458" d="M121 1325q0 46 32 78.5t78 32.5q49 0 83 -32.5t34 -78.5q0 -47 -33.5 -79t-83.5 -32q-46 0 -78 32t-32 79zM147 0v1032l164 19v-1051h-164z" />
<glyph unicode="j" horiz-adv-x="458" d="M-51 -342q60 35 100.5 80t61 96.5t28.5 100t8 106.5v987l164 25v-1035q0 -182 -67 -302.5t-211 -202.5zM115 1325q0 46 32 78.5t78 32.5q49 0 83 -32.5t34 -78.5q0 -47 -33.5 -79t-83.5 -32q-46 0 -78 32t-32 79z" />
<glyph unicode="k" d="M147 0v1534l164 18v-923l457 401h225l-446 -391l463 -639h-207l-377 535l-115 -101v-434h-164z" />
<glyph unicode="l" horiz-adv-x="458" d="M147 0v1534l164 18v-1552h-164z" />
<glyph unicode="m" horiz-adv-x="1693" d="M137 1012l154 20l22 -129q7 6 20.5 16t54 35.5t80.5 45t94 35.5t100 16q103 0 162.5 -36.5t86.5 -121.5q69 48 117 77.5t117.5 55t130.5 25.5q153 0 214.5 -84.5t61.5 -302.5v-664h-163v645q0 39 -0.5 58.5t-2 50t-5 46t-10 36.5t-16.5 31.5t-24 21t-33.5 14.5t-44.5 4 q-59 0 -121.5 -26t-99.5 -52t-94 -73v-756h-164v645q0 45 -0.5 66.5t-3 55.5t-7.5 50t-14.5 37t-24 30t-35.5 16t-50 7q-39 0 -87.5 -15t-89 -36.5t-75 -43.5t-54.5 -37l-20 -15v-760h-163v844q0 26 -3 68t-7 71z" />
<glyph unicode="n" horiz-adv-x="1120" d="M139 1012l152 20l22 -131q9 6 24.5 16t60.5 36t88 46t98 36t98 16q168 0 232.5 -84t64.5 -303v-664h-164v645v52t-1.5 46t-4.5 42.5t-8 35t-13 31.5t-19.5 23t-27 18.5t-36 9.5t-46.5 4q-63 0 -149.5 -37.5t-141.5 -74.5l-55 -37v-758h-163v825q0 36 -3 83t-5 76z" />
<glyph unicode="o" horiz-adv-x="1175" d="M90 512q0 120 33 215.5t84.5 154.5t119.5 98.5t133.5 55t131.5 15.5q53 0 106 -10.5t110 -33.5t105.5 -64t87.5 -97t61.5 -139t22.5 -183q0 -123 -33.5 -221.5t-85.5 -158.5t-120.5 -100t-133.5 -55.5t-130 -15.5q-67 0 -131 14.5t-131 53t-117 97t-81.5 155.5t-31.5 219 zM264 510q0 -194 87.5 -293.5t242.5 -99.5q151 0 234 98.5t83 286.5q0 199 -87.5 302t-243.5 103q-155 0 -235.5 -100t-80.5 -297z" />
<glyph unicode="p" horiz-adv-x="1105" d="M139 1012l152 20l18 -110q6 5 16 14t42.5 31t65 39t79.5 31t90 14q69 0 129 -18t113 -58t90 -101t58.5 -152.5t21.5 -205.5q0 -116 -29 -209.5t-76.5 -154.5t-113 -102.5t-135.5 -59t-146 -17.5q-39 0 -89.5 6.5t-80.5 12.5l-31 6v-444l-163 -21v1260q0 42 -3 96.5 t-5 88.5zM313 150q76 -33 201 -33q83 0 146.5 31t102 85t58 123.5t19.5 151.5q0 77 -13.5 144.5t-41.5 126.5t-80 93.5t-121 34.5q-61 0 -128.5 -32.5t-105.5 -64.5l-37 -32v-628z" />
<glyph unicode="q" horiz-adv-x="1099" d="M90 508q0 107 30.5 198.5t80.5 153.5t115.5 106t135 64.5t138.5 20.5q89 0 153 -14.5t112 -29t97 -14.5v-1442l-161 -20v551q-6 -4 -17.5 -11.5t-45.5 -26.5t-67 -33t-77.5 -26t-81.5 -12q-69 0 -129 18t-113 58t-90 101t-58.5 152.5t-21.5 205.5zM264 516 q0 -101 27 -189.5t87 -149t142 -60.5q54 0 121.5 27t108.5 54l41 27v654q-51 28 -201 28q-83 0 -146.5 -31t-102 -85t-58 -123.5t-19.5 -151.5z" />
<glyph unicode="r" horiz-adv-x="690" d="M139 1012l152 20l16 -149h2q5 7 14 18t35 40t51 51.5t58 40.5t59 18q34 0 66.5 -2.5t48.5 -5.5l16 -3l-36 -157q-60 10 -95 10q-41 0 -94 -51.5t-86 -102.5l-33 -51v-688h-163v864q0 27 -3 64t-5 60z" />
<glyph unicode="s" horiz-adv-x="854" d="M84 16l31 148q162 -47 293 -47q80 0 140 34t60 93q0 41 -22.5 76t-59 59t-83 50t-95.5 48t-95.5 53.5t-83 66t-59 85.5t-22.5 113q0 78 54 138t131 89t157 29q69 0 145 -10.5t117 -21.5l41 -11l-28 -146q-125 45 -275 45q-71 0 -119.5 -35t-48.5 -90q0 -37 28.5 -69 t74.5 -57.5t101 -52t110 -58t101 -68.5t74.5 -91.5t28.5 -119.5t-24.5 -117t-62.5 -84.5t-89 -53.5t-100 -29.5t-98 -8.5q-87 0 -167.5 10.5t-117.5 21.5z" />
<glyph unicode="t" horiz-adv-x="745" d="M35 897v133h188v287l164 20v-307h297v-133h-297v-547q0 -139 17.5 -186t74.5 -47q36 0 81 14.5t72 28.5l27 14l50 -125q-4 -3 -11.5 -8t-32 -18.5t-51 -23.5t-66.5 -18t-81 -8q-134 0 -189 76t-55 256v592h-188z" />
<glyph unicode="u" horiz-adv-x="1077" d="M141 360v670h164v-645q0 -40 0.5 -59t2 -50.5t5 -47t9.5 -37.5t16 -32.5t24 -22t33.5 -15.5t44.5 -4q39 0 87 15t88.5 37t75 43.5t53.5 36.5l20 15v766h164v-897q0 -29 2.5 -62.5t5.5 -52.5l2 -18l-162 -16l-12 129h-4q-35 -28 -77.5 -55t-119.5 -56t-145 -29 q-154 0 -215.5 84.5t-61.5 302.5z" />
<glyph unicode="v" horiz-adv-x="1001" d="M20 1030h181l250 -727l45 -162h2l47 162l266 727h172l-399 -1030h-185z" />
<glyph unicode="w" horiz-adv-x="1536" d="M37 1030h172l121 -465q18 -70 38.5 -166t31.5 -157l12 -60h2q55 225 104 383l146 465h219l116 -465q17 -68 37 -164t32 -157l11 -62h2q68 231 115 383l143 465h170l-338 -1030h-182l-147 565q-24 92 -43 176t-26 122l-7 38h-4q-27 -129 -90 -336l-174 -565h-183z" />
<glyph unicode="x" horiz-adv-x="1052" d="M27 0l391 541l-381 489h192l301 -381l285 381h184l-358 -483l393 -547h-192l-314 436l-317 -436h-184z" />
<glyph unicode="y" horiz-adv-x="1017" d="M14 1030h174l193 -465q33 -79 66 -174t50 -150l17 -55h2q65 201 135 379l178 465h172l-487 -1229q-22 -56 -58 -107t-71.5 -84t-68 -58t-52.5 -36l-20 -12l-80 142q6 3 16 8.5t38.5 25t52.5 42t50.5 59.5t40.5 78l64 168z" />
<glyph unicode="z" horiz-adv-x="942" d="M49 0v63l588 840q-84 -8 -203 -8h-334v135h768v-72l-577 -829q86 6 145 6h430v-135h-817z" />
<glyph unicode="{" horiz-adv-x="665" d="M53 512v154q86 35 115 58q72 56 76 192v16q0 74 -7.5 197t-7.5 217q0 53 25 99t62 76.5t88 56t94 39.5t90 25l28 -143q-9 -2 -24 -5.5t-54 -19t-68.5 -34.5t-54 -53.5t-24.5 -75.5q0 -49 7.5 -173.5t7.5 -217.5q0 -284 -170 -332q94 -27 132 -102.5t38 -206.5 q0 -93 -7.5 -218t-7.5 -174q0 -41 23 -75t56 -54t66.5 -34t56.5 -20l23 -5l-28 -143q-47 11 -90 25t-94 39.5t-88 56.5t-62 77t-25 99q0 95 7.5 217t7.5 196q0 58 -16 101.5t-47 70t-56.5 41t-63.5 30.5q-6 2 -8 3z" />
<glyph unicode="|" horiz-adv-x="471" d="M154 -467v2019h163v-2019h-163z" />
<glyph unicode="}" horiz-adv-x="665" d="M49 -301q9 2 24 5.5t54 19t68.5 34.5t54 53.5t24.5 75.5q0 49 -7 174t-7 218q0 131 38 206.5t132 102.5q-170 48 -170 332q0 93 7 217.5t7 173.5q0 41 -23 75t-56 54t-66.5 34t-56.5 20l-23 5l29 143q47 -11 90 -25t94 -39.5t87.5 -56t61.5 -76.5t25 -99q0 -94 -7 -217 t-7 -197q0 -68 11.5 -113.5t43 -74.5t53 -41t73.5 -33q6 -3 9 -4v-154q-84 -36 -117 -65q-73 -63 -73 -181q0 -74 7 -196t7 -217q0 -66 -35.5 -119.5t-94.5 -88t-113.5 -55t-114.5 -34.5z" />
<glyph unicode="~" horiz-adv-x="1140" d="M102 612q48 33 80.5 53t87.5 41t103 21q55 0 112.5 -18.5t100 -40t101 -40t114.5 -18.5q65 0 168 82l73 -114q-34 -27 -51.5 -40t-51 -33t-67 -29t-71.5 -9q-56 0 -114.5 18.5t-101 40t-100 40t-112.5 18.5q-29 0 -62 -12t-56.5 -25.5t-82.5 -50.5z" />
<glyph unicode="&#xa1;" horiz-adv-x="468" d="M111 889q0 51 34.5 86t85.5 35q53 0 90 -35t37 -86q0 -50 -37.5 -85.5t-89.5 -35.5q-51 0 -85.5 35.5t-34.5 85.5zM129 -473l41 1118h133l35 -1141z" />
<glyph unicode="&#xa2;" horiz-adv-x="944" d="M102 682q0 204 104 328.5t255 146.5v240h164v-242q51 -6 102.5 -16.5t77.5 -17.5l26 -7l-32 -137q-138 43 -285 43q-64 0 -110.5 -23t-70.5 -55.5t-37.5 -83t-16.5 -88.5t-3 -90q0 -183 59 -256.5t214 -73.5q61 0 127 12t102 24l35 13l33 -137q-82 -35 -221 -49v-254 h-164v250q-92 5 -157 31.5t-111.5 81.5t-68.5 144t-22 216z" />
<glyph unicode="&#xa3;" horiz-adv-x="1136" d="M102 121l181 31l-35 477l-121 -13l-14 146l125 16l-19 264q-12 168 101.5 270.5t334.5 102.5q88 0 177 -13.5t134 -26.5l44 -13l-43 -139q-152 49 -312 49q-64 0 -111 -11.5t-84.5 -39t-54.5 -78t-12 -123.5l17 -227h487v-154h-477l37 -475h581v-164h-645 q-50 0 -117.5 -7t-109.5 -13l-43 -7z" />
<glyph unicode="&#xa4;" horiz-adv-x="1134" d="M102 39l148 176q-94 127 -94 297t94 297l-148 176l80 68l142 -168q108 88 245 88q135 0 244 -86l139 166l80 -68l-147 -174q98 -132 98 -299q0 -165 -100 -299l149 -174l-80 -68l-141 166q-104 -84 -242 -84q-139 0 -245 86l-142 -168zM287 512q0 -140 83 -235t199 -95 q118 0 200.5 94.5t82.5 235.5q0 144 -82 238t-201 94q-116 0 -199 -94t-83 -238z" />
<glyph unicode="&#xa5;" horiz-adv-x="1259" d="M96 1397h195l338 -668l340 668h194l-364 -725h323v-144h-405v-166h405v-143h-405v-219h-174v219h-406v143h406v166h-406v144h324z" />
<glyph unicode="&#xa6;" horiz-adv-x="479" d="M168 0v627h143v-627h-143zM168 770v627h143v-627h-143z" />
<glyph unicode="&#xa7;" horiz-adv-x="1116" d="M106 -432l41 166q18 -8 49 -19t118 -30t163 -19q367 0 367 193q0 49 -25 90.5t-67 72t-96.5 59t-115 55.5t-120.5 55.5t-114.5 65t-96.5 79.5t-67 103.5t-25 131.5q0 94 58 176t149 146q-98 64 -152.5 143t-54.5 189q0 67 29.5 129.5t84.5 112.5t143.5 80t198.5 30 q88 0 177.5 -10.5t134.5 -20.5l45 -10l-29 -154q-154 33 -328 33q-148 0 -215 -46.5t-67 -143.5q0 -46 25 -86.5t67 -71t96.5 -59t114.5 -55.5t120.5 -56t115 -65t96.5 -77t67 -97.5t25 -122.5q0 -200 -201 -342q97 -60 149 -134t52 -178q0 -67 -20.5 -123t-53.5 -94 t-79.5 -68t-94.5 -47t-103 -28t-100 -15t-90 -4q-96 0 -188.5 16.5t-137.5 33.5zM291 571q0 -25 8.5 -48.5t28 -46t38 -41t52.5 -39.5t56.5 -35t64.5 -34t63 -29.5t64 -29.5q82 51 129 116t47 128q0 29 -13 57t-30.5 50t-52 47.5t-59 41t-72 39t-70 34t-72.5 32.5 q-86 -53 -134 -116t-48 -126z" />
<glyph unicode="&#xa8;" horiz-adv-x="987" d="M205 1325q0 46 32 78.5t78 32.5q49 0 83 -32.5t34 -78.5q0 -47 -33.5 -79t-83.5 -32q-46 0 -78 32t-32 79zM555 1325q0 46 32.5 78.5t78.5 32.5q49 0 82.5 -32.5t33.5 -78.5q0 -47 -33.5 -79t-82.5 -32q-46 0 -78.5 32t-32.5 79z" />
<glyph unicode="&#xa9;" horiz-adv-x="1599" d="M102 698q0 142 55 271.5t148.5 223t222.5 149t271 55.5q189 0 350 -94t254.5 -255t93.5 -350q0 -142 -55.5 -271t-149 -222t-222.5 -148t-271 -55q-189 0 -349.5 93t-254 253.5t-93.5 349.5zM219 698q0 -156 78.5 -289.5t212 -211.5t289.5 -78q158 0 291.5 78 t210.5 211.5t77 289.5q0 158 -77 291.5t-210.5 211t-291.5 77.5q-156 0 -289.5 -77t-212 -211t-78.5 -292zM440 702q0 88 21 159.5t55.5 117.5t82 77.5t98 44.5t106.5 13q44 0 93.5 -7t77.5 -13l27 -7l-28 -120q-88 20 -170 20q-60 0 -103.5 -27t-65 -72.5t-31 -91.5 t-9.5 -96q0 -137 66.5 -208.5t158.5 -71.5q38 0 80 7t65 15l23 7l25 -121q-94 -37 -209 -37q-82 0 -145.5 20.5t-114 67t-77 128t-26.5 195.5z" />
<glyph unicode="&#xaa;" horiz-adv-x="784" d="M80 963q0 68 51 117.5t122 73.5t155 30l108 8q0 100 -4 120q-10 47 -56 58q-23 6 -57 6q-47 0 -104 -7t-90 -14l-33 -7l-22 116q135 31 272 31q231 0 231 -252v-332q0 -22 2.5 -53t4.5 -52l2 -20l-134 -10l-14 76q-66 -47 -113.5 -64.5t-99.5 -17.5q-98 0 -159.5 48 t-61.5 145zM219 963q0 -89 96 -89q42 0 78.5 12.5t58.5 26.5t64 45v138q-76 -5 -125 -13q-96 -10 -134 -39t-38 -81z" />
<glyph unicode="&#xab;" horiz-adv-x="1103" d="M80 522l391 465l109 -92l-312 -373l312 -372l-109 -93zM514 522l391 465l109 -92l-312 -373l312 -372l-109 -93z" />
<glyph unicode="&#xac;" horiz-adv-x="1187" d="M141 451v151h901v-450h-151v299h-750z" />
<glyph unicode="&#xad;" horiz-adv-x="800" d="M127 451v151h547v-151h-547z" />
<glyph unicode="&#xae;" horiz-adv-x="1599" d="M102 698q0 142 55 271.5t148.5 223t222.5 149t271 55.5q189 0 350 -94t254.5 -255t93.5 -350q0 -142 -55.5 -271t-149 -222t-222.5 -148t-271 -55q-189 0 -349.5 93t-254 253.5t-93.5 349.5zM219 698q0 -156 78.5 -289.5t212 -211.5t289.5 -78q158 0 291.5 78 t210.5 211.5t77 289.5q0 158 -77 291.5t-210.5 211t-291.5 77.5q-156 0 -289.5 -77t-212 -211t-78.5 -292zM567 326v786h193q133 0 207.5 -56t74.5 -167q0 -53 -16 -96t-39 -66.5t-45.5 -39t-38.5 -20.5l-16 -5v-5l250 -331h-158l-229 313h-52v-313h-131zM698 764h78 q125 0 129 108q0 65 -34 90t-111 25h-62v-223z" />
<glyph unicode="&#xaf;" horiz-adv-x="1241" d="M205 1212v144h831v-144h-831z" />
<glyph unicode="&#xb0;" horiz-adv-x="727" d="M88 1284q0 110 80.5 189t193.5 79q111 0 195 -79.5t84 -188.5q0 -112 -84 -195t-195 -83q-112 0 -193 82.5t-81 195.5zM219 1284q0 -69 39 -112.5t104 -43.5q66 0 107 44t41 112q0 65 -41 106.5t-107 41.5q-65 0 -104 -41.5t-39 -106.5z" />
<glyph unicode="&#xb1;" horiz-adv-x="1128" d="M113 451v151h368v361h164v-361h369v-151h-369v-299h371v-152h-901v152h366v299h-368z" />
<glyph unicode="&#xb2;" horiz-adv-x="737" d="M104 645v84q14 13 38 35t85.5 85t108 119t85 122t38.5 110q0 54 -27.5 74t-99.5 20q-40 0 -86.5 -8t-72.5 -16l-26 -8l-34 108q11 5 30.5 12.5t82.5 20t128 12.5q248 0 248 -203q0 -51 -31.5 -116.5t-77 -122.5t-90.5 -107t-77 -79l-31 -29q59 8 188 8h142v-121h-521z " />
<glyph unicode="&#xb3;" horiz-adv-x="661" d="M82 670l45 104q61 -31 141 -31q146 0 146 121q0 63 -51.5 93t-163.5 30v98q105 0 156 33.5t51 91.5q0 84 -111 84q-31 0 -61 -4t-44 -8l-14 -4l-37 113q70 24 168 24q108 0 175 -43.5t67 -130.5q0 -80 -44 -132t-93 -67v-4q145 -53 145 -186q0 -50 -19 -89.5t-48.5 -63.5 t-69 -40t-77 -22t-75.5 -6q-50 0 -96.5 9.5t-67.5 19.5z" />
<glyph unicode="&#xb4;" horiz-adv-x="868" d="M205 1323l352 256l107 -125l-390 -223z" />
<glyph unicode="&#xb6;" horiz-adv-x="1077" d="M80 971q0 228 88 327t303 99h428v-1399q0 -122 -25.5 -204.5t-75.5 -144t-145 -134.5l-114 123q116 87 156 176t40 206v1233h-147v-708h-99q-101 0 -181 36t-128.5 96.5t-74 135.5t-25.5 158z" />
<glyph unicode="&#xb7;" horiz-adv-x="458" d="M109 805q0 51 34.5 86t85.5 35t86 -35t35 -86t-35 -86t-86 -35t-85.5 35t-34.5 86z" />
<glyph unicode="&#xb8;" horiz-adv-x="677" d="M205 -403q49 53 74 101.5t28.5 72t3.5 59.5v49h162v-49q0 -84 -29 -156.5t-122 -173.5z" />
<glyph unicode="&#xb9;" horiz-adv-x="550" d="M47 1307l287 90h80v-752h-138v612l-204 -45z" />
<glyph unicode="&#xba;" horiz-adv-x="874" d="M90 1130q0 81 23.5 146t60 105t84.5 66.5t93 37t89 10.5t88 -9.5t91 -35t83 -64t59 -102.5t23 -145q0 -83 -23.5 -150t-60.5 -107.5t-85 -67.5t-92.5 -37.5t-88.5 -10.5q-46 0 -90.5 9.5t-91.5 35.5t-82 65.5t-57.5 105t-22.5 148.5zM229 1130q0 -119 55.5 -182 t157.5 -63q100 0 152.5 62t52.5 177q0 121 -56 187.5t-159 66.5q-203 0 -203 -248z" />
<glyph unicode="&#xbb;" horiz-adv-x="1103" d="M90 150l311 372l-311 373l109 92l391 -465l-391 -465zM524 150l312 372l-312 373l109 92l391 -465l-391 -465z" />
<glyph unicode="&#xbc;" horiz-adv-x="1705" d="M70 1307l286 90h80v-752h-137v612l-205 -45zM453 -113l606 1663l115 -41l-607 -1663zM999 170v98l400 484h137v-465h76v-117h-76v-170h-137v170h-400zM1149 283q88 4 182 4h68v112q0 68 1.5 119t3.5 68l1 16z" />
<glyph unicode="&#xbd;" horiz-adv-x="1669" d="M70 1307l286 90h80v-752h-137v612l-205 -45zM432 -113l606 1663l115 -41l-606 -1663zM1049 0v84q14 13 38 35t85 85t107.5 119t85 122t38.5 110q0 54 -27.5 74t-99.5 20q-40 0 -86 -8.5t-72 -16.5l-26 -8l-35 109q11 5 30.5 12.5t82.5 20t128 12.5q248 0 248 -203 q0 -51 -31.5 -116.5t-76.5 -122.5t-90.5 -107t-77.5 -79l-31 -29q59 8 188 8h142v-121h-520z" />
<glyph unicode="&#xbe;" horiz-adv-x="1771" d="M82 670l45 104q61 -31 141 -31q146 0 146 121q0 63 -51.5 93t-163.5 30v98q105 0 156 33.5t51 91.5q0 84 -111 84q-31 0 -61 -4t-44 -8l-14 -4l-37 113q70 24 168 24q108 0 175 -43.5t67 -130.5q0 -80 -44 -132t-93 -67v-4q145 -53 145 -186q0 -50 -19 -89.5t-48.5 -63.5 t-69 -40t-77 -22t-75.5 -6q-50 0 -96.5 9.5t-67.5 19.5zM526 -113l607 1663l114 -41l-606 -1663zM1073 170v98l400 484h137v-465h76v-117h-76v-170h-137v170h-400zM1223 283q88 4 182 4h68v112q0 68 1.5 119t3.5 68l1 16z" />
<glyph unicode="&#xbf;" horiz-adv-x="819" d="M80 -133q0 81 22.5 146t59 105.5t80.5 71.5t88 52t80.5 39t59 39t22.5 47v262h163v-262q0 -57 -21.5 -97.5t-56 -63t-76 -40.5t-83.5 -38.5t-76.5 -47.5t-56 -76t-21.5 -117q0 -102 66.5 -162.5t175.5 -60.5q36 0 75.5 8t60.5 16l22 7l41 -158q-82 -37 -213 -37 q-177 0 -294.5 102t-117.5 265zM453 889q0 51 37 86t90 35q51 0 85.5 -35t34.5 -86q0 -50 -34.5 -85.5t-85.5 -35.5q-52 0 -89.5 35.5t-37.5 85.5z" />
<glyph unicode="&#xc0;" horiz-adv-x="1249" d="M39 0l479 1397h213l479 -1397h-178l-123 373h-567l-125 -373h-178zM303 1798l106 125l353 -256l-70 -92zM395 537h459l-225 696h-6z" />
<glyph unicode="&#xc1;" horiz-adv-x="1249" d="M39 0l479 1397h213l479 -1397h-178l-123 373h-567l-125 -373h-178zM395 537h459l-225 696h-6zM420 1665l352 256l107 -125l-390 -223z" />
<glyph unicode="&#xc2;" horiz-adv-x="1249" d="M39 0l479 1397h213l479 -1397h-178l-123 373h-567l-125 -373h-178zM307 1644l276 281h82l277 -281l-82 -67l-236 198l-235 -198zM395 537h459l-225 696h-6z" />
<glyph unicode="&#xc3;" horiz-adv-x="1249" d="M39 0l479 1397h213l479 -1397h-178l-123 373h-567l-125 -373h-178zM252 1663q87 119 227 119q50 0 101 -20.5t93 -41t70 -20.5q29 0 54 13t38.5 28t30.5 39l111 -84q-104 -129 -211 -129q-58 0 -113 20.5t-97.5 41t-68.5 20.5q-72 0 -129 -76zM395 537h459l-225 696h-6z " />
<glyph unicode="&#xc4;" horiz-adv-x="1249" d="M39 0l479 1397h213l479 -1397h-178l-123 373h-567l-125 -373h-178zM336 1688q0 46 32 78t78 32q49 0 83 -32t34 -78q0 -47 -33.5 -79t-83.5 -32q-46 0 -78 32t-32 79zM395 537h459l-225 696h-6zM686 1688q0 46 32.5 78t78.5 32q49 0 82.5 -32t33.5 -78q0 -47 -33.5 -79 t-82.5 -32q-46 0 -78.5 32t-32.5 79z" />
<glyph unicode="&#xc5;" horiz-adv-x="1249" d="M39 0l479 1397h213l479 -1397h-178l-123 373h-567l-125 -373h-178zM395 537h459l-225 696h-6zM406 1694q0 95 62.5 159t154.5 64q96 0 161.5 -64t65.5 -159q0 -92 -66 -156.5t-161 -64.5q-92 0 -154.5 64t-62.5 157zM510 1694q0 -50 34 -83.5t83 -33.5q50 0 84 34t34 83 q0 50 -34.5 84t-83.5 34t-83 -34t-34 -84z" />
<glyph unicode="&#xc6;" horiz-adv-x="1773" d="M27 0l673 1397h955v-158h-684v-446h635v-154h-635v-481h704v-158h-876v393h-396l-180 -393h-196zM479 557h320v676h-8z" />
<glyph unicode="&#xc7;" horiz-adv-x="1243" d="M104 686q0 175 48.5 314.5t136 229.5t206 137.5t259.5 47.5q101 0 204 -15.5t156 -31.5l53 -16l-37 -152q-20 7 -54.5 17.5t-134 27.5t-189.5 17q-95 0 -172.5 -35t-129 -92t-86.5 -133t-50 -155.5t-15 -162.5q0 -165 62 -293.5t165.5 -196t227.5 -67.5q103 0 199.5 14.5 t142.5 28.5l45 14l35 -145q-21 -7 -58 -18t-147.5 -29.5t-216.5 -18.5q-210 0 -358.5 93t-220 251.5t-71.5 368.5zM563 -403q49 53 74 101.5t28.5 72t3.5 59.5v49h162v-49q0 -84 -29 -156.5t-122 -173.5z" />
<glyph unicode="&#xc8;" horiz-adv-x="1155" d="M180 0v1397h856v-158h-684v-446h635v-154h-635v-481h705v-158h-877zM352 1796l107 125l352 -256l-70 -92z" />
<glyph unicode="&#xc9;" horiz-adv-x="1155" d="M180 0v1397h856v-158h-684v-446h635v-154h-635v-481h705v-158h-877zM461 1667l352 256l107 -125l-390 -223z" />
<glyph unicode="&#xca;" horiz-adv-x="1155" d="M180 0v1397h856v-158h-684v-446h635v-154h-635v-481h705v-158h-877zM309 1642l277 281h82l276 -281l-82 -67l-235 199l-236 -199z" />
<glyph unicode="&#xcb;" horiz-adv-x="1155" d="M180 0v1397h856v-158h-684v-446h635v-154h-635v-481h705v-158h-877zM342 1663q0 46 32 78.5t78 32.5q49 0 83 -32.5t34 -78.5q0 -47 -33.5 -79t-83.5 -32q-46 0 -78 32t-32 79zM692 1663q0 46 32.5 78.5t78.5 32.5q49 0 82.5 -32.5t33.5 -78.5q0 -47 -33.5 -79t-82.5 -32 q-46 0 -78.5 32t-32.5 79z" />
<glyph unicode="&#xcc;" horiz-adv-x="532" d="M-27 1796l107 125l352 -256l-70 -92zM-27 1796l107 125l352 -256l-70 -92zM180 0v1397h172v-1397h-172zM180 0v1397h172v-1397h-172z" />
<glyph unicode="&#xcd;" horiz-adv-x="532" d="M107 1665l352 256l107 -125l-390 -223zM180 0v1397h172v-1397h-172z" />
<glyph unicode="&#xce;" horiz-adv-x="532" d="M-53 1642l276 281h82l277 -281l-82 -67l-236 199l-235 -199zM180 0v1397h172v-1397h-172z" />
<glyph unicode="&#xcf;" horiz-adv-x="532" d="M-24 1663q0 46 32 78.5t78 32.5q49 0 83 -32.5t34 -78.5q0 -47 -33.5 -79t-83.5 -32q-46 0 -78 32t-32 79zM180 0v1397h172v-1397h-172zM326 1663q0 46 32.5 78.5t78.5 32.5q49 0 82.5 -32.5t33.5 -78.5q0 -47 -33.5 -79t-82.5 -32q-46 0 -78.5 32t-32.5 79z" />
<glyph unicode="&#xd0;" horiz-adv-x="1542" d="M6 639v164h252v594h449q167 0 300 -42t230 -126t149 -217.5t52 -309.5q0 -175 -56.5 -311t-156.5 -220.5t-231 -127.5t-287 -43h-449v639h-252zM430 158h277q117 0 213 29.5t172 92t118.5 170t42.5 252.5q0 271 -143.5 404t-402.5 133h-277v-436h324v-164h-324v-481z" />
<glyph unicode="&#xd1;" horiz-adv-x="1413" d="M180 0v1397h164l733 -1108h4q-12 202 -12 411v697h164v-1397h-164l-733 1112h-4q12 -205 12 -414v-698h-164zM344 1640q87 119 227 119q50 0 101 -20.5t93 -41t70 -20.5q29 0 54 13t38.5 28t30.5 39l111 -84q-104 -129 -211 -129q-58 0 -113 20.5t-97.5 41t-68.5 20.5 q-72 0 -129 -76z" />
<glyph unicode="&#xd2;" horiz-adv-x="1556" d="M104 698q0 153 41 277.5t107.5 204.5t156 134.5t181.5 77.5t188 23q99 0 188.5 -19t180.5 -69.5t156.5 -129t107 -207.5t41.5 -294q0 -154 -41 -279t-107.5 -206t-156 -136t-181.5 -78.5t-188 -23.5q-97 0 -188.5 22t-181 76t-156 134.5t-107.5 207.5t-41 285zM299 709 q0 -273 126.5 -422.5t344.5 -149.5q223 0 355 141t132 410q0 272 -126 417.5t-345 145.5q-223 0 -355 -138t-132 -404zM545 1796l106 125l353 -256l-70 -92z" />
<glyph unicode="&#xd3;" horiz-adv-x="1556" d="M104 698q0 153 41 277.5t107.5 204.5t156 134.5t181.5 77.5t188 23q99 0 188.5 -19t180.5 -69.5t156.5 -129t107 -207.5t41.5 -294q0 -154 -41 -279t-107.5 -206t-156 -136t-181.5 -78.5t-188 -23.5q-97 0 -188.5 22t-181 76t-156 134.5t-107.5 207.5t-41 285zM299 709 q0 -273 126.5 -422.5t344.5 -149.5q223 0 355 141t132 410q0 272 -126 417.5t-345 145.5q-223 0 -355 -138t-132 -404zM555 1665l352 256l107 -125l-390 -223z" />
<glyph unicode="&#xd4;" horiz-adv-x="1556" d="M104 698q0 153 41 277.5t107.5 204.5t156 134.5t181.5 77.5t188 23q99 0 188.5 -19t180.5 -69.5t156.5 -129t107 -207.5t41.5 -294q0 -154 -41 -279t-107.5 -206t-156 -136t-181.5 -78.5t-188 -23.5q-97 0 -188.5 22t-181 76t-156 134.5t-107.5 207.5t-41 285zM299 709 q0 -273 126.5 -422.5t344.5 -149.5q223 0 355 141t132 410q0 272 -126 417.5t-345 145.5q-223 0 -355 -138t-132 -404zM489 1645l277 280h82l276 -280l-82 -68l-235 199l-236 -199z" />
<glyph unicode="&#xd5;" horiz-adv-x="1556" d="M104 698q0 153 41 277.5t107.5 204.5t156 134.5t181.5 77.5t188 23q99 0 188.5 -19t180.5 -69.5t156.5 -129t107 -207.5t41.5 -294q0 -154 -41 -279t-107.5 -206t-156 -136t-181.5 -78.5t-188 -23.5q-97 0 -188.5 22t-181 76t-156 134.5t-107.5 207.5t-41 285zM299 709 q0 -273 126.5 -422.5t344.5 -149.5q223 0 355 141t132 410q0 272 -126 417.5t-345 145.5q-223 0 -355 -138t-132 -404zM416 1663q87 119 227 119q50 0 101 -20.5t93 -41t70 -20.5q29 0 54 13t38.5 28t30.5 39l111 -84q-104 -129 -211 -129q-58 0 -113 20.5t-97.5 41 t-68.5 20.5q-72 0 -129 -76z" />
<glyph unicode="&#xd6;" horiz-adv-x="1556" d="M104 698q0 153 41 277.5t107.5 204.5t156 134.5t181.5 77.5t188 23q99 0 188.5 -19t180.5 -69.5t156.5 -129t107 -207.5t41.5 -294q0 -154 -41 -279t-107.5 -206t-156 -136t-181.5 -78.5t-188 -23.5q-97 0 -188.5 22t-181 76t-156 134.5t-107.5 207.5t-41 285zM299 709 q0 -273 126.5 -422.5t344.5 -149.5q223 0 355 141t132 410q0 272 -126 417.5t-345 145.5q-223 0 -355 -138t-132 -404zM506 1687q0 46 32 78.5t78 32.5q49 0 83 -32.5t34 -78.5q0 -47 -33.5 -79t-83.5 -32q-46 0 -78 32t-32 79zM856 1687q0 46 32.5 78.5t78.5 32.5 q49 0 82.5 -32.5t33.5 -78.5q0 -47 -33.5 -79t-82.5 -32q-46 0 -78.5 32t-32.5 79z" />
<glyph unicode="&#xd7;" horiz-adv-x="1150" d="M96 123l391 391l-391 393l86 88l393 -393l394 393l86 -88l-393 -393l393 -391l-86 -88l-394 393l-393 -393z" />
<glyph unicode="&#xd8;" horiz-adv-x="1556" d="M104 698q0 153 41 277.5t107.5 204.5t156 134.5t181.5 77.5t188 23q255 0 422 -123l139 166l111 -92l-145 -172q147 -181 147 -498q0 -154 -41 -279t-107.5 -206t-156 -136t-181.5 -78.5t-188 -23.5q-230 0 -399 117l-162 -194l-111 92l164 196q-166 191 -166 514z M299 709q0 -234 94 -379l690 823q-121 98 -297 98q-223 0 -355 -138t-132 -404zM492 223q112 -86 278 -86q223 0 355 141t132 410q0 213 -79 352z" />
<glyph unicode="&#xd9;" horiz-adv-x="1466" d="M170 481v916h172v-873q0 -385 393 -385q389 0 389 385v873h172v-916q0 -141 -69 -256t-198.5 -182.5t-295.5 -67.5q-269 0 -416 133t-147 373zM481 1796l107 125l352 -256l-70 -92z" />
<glyph unicode="&#xda;" horiz-adv-x="1466" d="M170 481v916h172v-873q0 -385 393 -385q389 0 389 385v873h172v-916q0 -141 -69 -256t-198.5 -182.5t-295.5 -67.5q-269 0 -416 133t-147 373zM631 1665l352 256l107 -125l-390 -223z" />
<glyph unicode="&#xdb;" horiz-adv-x="1466" d="M170 481v916h172v-873q0 -385 393 -385q389 0 389 385v873h172v-916q0 -141 -69 -256t-198.5 -182.5t-295.5 -67.5q-269 0 -416 133t-147 373zM436 1647l277 280h82l276 -280l-82 -68l-235 199l-236 -199z" />
<glyph unicode="&#xdc;" horiz-adv-x="1466" d="M170 481v916h172v-873q0 -385 393 -385q389 0 389 385v873h172v-916q0 -141 -69 -256t-198.5 -182.5t-295.5 -67.5q-269 0 -416 133t-147 373zM434 1687q0 46 32 78.5t78 32.5q49 0 83 -32.5t34 -78.5q0 -47 -33.5 -79t-83.5 -32q-46 0 -78 32t-32 79zM784 1687 q0 46 32.5 78.5t78.5 32.5q49 0 82.5 -32.5t33.5 -78.5q0 -47 -33.5 -79t-82.5 -32q-46 0 -78.5 32t-32.5 79z" />
<glyph unicode="&#xdd;" horiz-adv-x="1116" d="M25 1397h190l342 -678l344 678h191l-447 -889v-508h-174v508zM359 1665l352 256l107 -125l-390 -223z" />
<glyph unicode="&#xde;" horiz-adv-x="1114" d="M180 0v1397h172v-244h170q270 0 396 -95.5t126 -316.5q0 -94 -31.5 -169.5t-80.5 -123t-112.5 -79.5t-124.5 -45t-120 -13h-223v-311h-172zM352 465h209q150 0 229.5 62.5t79.5 217.5q0 65 -15.5 110.5t-43 73.5t-75.5 43.5t-102 21t-134 5.5h-148v-534z" />
<glyph unicode="&#xdf;" horiz-adv-x="1226" d="M147 0v905q0 171 19.5 285.5t70 200t140 124.5t225.5 39q77 0 147 -18.5t131.5 -57.5t98.5 -109.5t37 -164.5q0 -74 -19.5 -130.5t-50.5 -89.5t-69 -57t-76 -40.5t-69 -32t-50.5 -39t-19.5 -55.5q0 -26 28.5 -52.5t73.5 -50.5t100 -51t110 -60.5t100 -72t73.5 -92.5 t28.5 -115q0 -65 -24.5 -117t-63.5 -84.5t-92 -53.5t-105.5 -29.5t-108.5 -8.5q-68 0 -144.5 11t-118.5 22l-42 12l33 150q135 -49 274 -49q217 0 217 141q0 37 -28.5 71t-73.5 61t-100 54.5t-110 59t-100 67t-73.5 85t-28.5 106.5q0 52 21 90.5t54.5 62t74.5 42.5t81.5 38 t74 41.5t54.5 60t21 87.5q0 61 -27 106t-71 68.5t-89.5 34t-92.5 10.5q-44 0 -80 -8.5t-63 -21.5t-48 -38.5t-35 -49.5t-23.5 -66t-15 -76t-8.5 -90.5t-3.5 -100t-0.5 -112.5v-842h-164z" />
<glyph unicode="&#xe0;" d="M61 260q0 77 40 138.5t108.5 100t150 61.5t172.5 30l189 12q0 48 -1 77.5t-5 65.5t-12.5 57t-23 44t-36 34.5t-53 19t-72.5 7.5q-69 0 -146 -11.5t-119 -22.5l-42 -11l-33 142q19 5 53.5 13t133 21t188.5 13q80 0 140 -20.5t96 -54t58 -83.5t30 -101t8 -114v-492 q0 -33 3 -79.5t6 -76.5l3 -30l-158 -16l-20 112q-107 -62 -189 -92.5t-170 -30.5q-142 0 -220.5 70t-78.5 217zM236 260q0 -69 42.5 -106t116.5 -37q92 0 169 31t157 92v233q-141 -6 -215 -16q-146 -19 -208 -65t-62 -132zM264 1454l107 125l352 -256l-70 -92z" />
<glyph unicode="&#xe1;" d="M61 260q0 77 40 138.5t108.5 100t150 61.5t172.5 30l189 12q0 48 -1 77.5t-5 65.5t-12.5 57t-23 44t-36 34.5t-53 19t-72.5 7.5q-69 0 -146 -11.5t-119 -22.5l-42 -11l-33 142q19 5 53.5 13t133 21t188.5 13q80 0 140 -20.5t96 -54t58 -83.5t30 -101t8 -114v-492 q0 -33 3 -79.5t6 -76.5l3 -30l-158 -16l-20 112q-107 -62 -189 -92.5t-170 -30.5q-142 0 -220.5 70t-78.5 217zM236 260q0 -69 42.5 -106t116.5 -37q92 0 169 31t157 92v233q-141 -6 -215 -16q-146 -19 -208 -65t-62 -132zM301 1321l352 256l107 -125l-390 -223z" />
<glyph unicode="&#xe2;" d="M61 260q0 77 40 138.5t108.5 100t150 61.5t172.5 30l189 12q0 48 -1 77.5t-5 65.5t-12.5 57t-23 44t-36 34.5t-53 19t-72.5 7.5q-69 0 -146 -11.5t-119 -22.5l-42 -11l-33 142q19 5 53.5 13t133 21t188.5 13q80 0 140 -20.5t96 -54t58 -83.5t30 -101t8 -114v-492 q0 -33 3 -79.5t6 -76.5l3 -30l-158 -16l-20 112q-107 -62 -189 -92.5t-170 -30.5q-142 0 -220.5 70t-78.5 217zM205 1296l276 281h82l277 -281l-82 -67l-236 198l-235 -198zM236 260q0 -69 42.5 -106t116.5 -37q92 0 169 31t157 92v233q-141 -6 -215 -16q-146 -19 -208 -65 t-62 -132z" />
<glyph unicode="&#xe3;" d="M61 260q0 77 40 138.5t108.5 100t150 61.5t172.5 30l189 12q0 48 -1 77.5t-5 65.5t-12.5 57t-23 44t-36 34.5t-53 19t-72.5 7.5q-69 0 -146 -11.5t-119 -22.5l-42 -11l-33 142q19 5 53.5 13t133 21t188.5 13q80 0 140 -20.5t96 -54t58 -83.5t30 -101t8 -114v-492 q0 -33 3 -79.5t6 -76.5l3 -30l-158 -16l-20 112q-107 -62 -189 -92.5t-170 -30.5q-142 0 -220.5 70t-78.5 217zM158 1325q87 119 227 119q50 0 101 -20.5t93 -41t70 -20.5q29 0 54 13t38.5 28t30.5 39l111 -84q-104 -129 -211 -129q-58 0 -113 20.5t-97.5 41t-68.5 20.5 q-72 0 -129 -76zM236 260q0 -69 42.5 -106t116.5 -37q92 0 169 31t157 92v233q-141 -6 -215 -16q-146 -19 -208 -65t-62 -132z" />
<glyph unicode="&#xe4;" d="M61 260q0 77 40 138.5t108.5 100t150 61.5t172.5 30l189 12q0 48 -1 77.5t-5 65.5t-12.5 57t-23 44t-36 34.5t-53 19t-72.5 7.5q-69 0 -146 -11.5t-119 -22.5l-42 -11l-33 142q19 5 53.5 13t133 21t188.5 13q80 0 140 -20.5t96 -54t58 -83.5t30 -101t8 -114v-492 q0 -33 3 -79.5t6 -76.5l3 -30l-158 -16l-20 112q-107 -62 -189 -92.5t-170 -30.5q-142 0 -220.5 70t-78.5 217zM236 260q0 -69 42.5 -106t116.5 -37q92 0 169 31t157 92v233q-141 -6 -215 -16q-146 -19 -208 -65t-62 -132zM236 1325q0 46 32 78.5t78 32.5q49 0 83 -32.5 t34 -78.5q0 -47 -33.5 -79t-83.5 -32q-46 0 -78 32t-32 79zM586 1325q0 46 32.5 78.5t78.5 32.5q49 0 82.5 -32.5t33.5 -78.5q0 -47 -33.5 -79t-82.5 -32q-46 0 -78.5 32t-32.5 79z" />
<glyph unicode="&#xe5;" d="M61 260q0 77 40 138.5t108.5 100t150 61.5t172.5 30l189 12q0 48 -1 77.5t-5 65.5t-12.5 57t-23 44t-36 34.5t-53 19t-72.5 7.5q-69 0 -146 -11.5t-119 -22.5l-42 -11l-33 142q19 5 53.5 13t133 21t188.5 13q80 0 140 -20.5t96 -54t58 -83.5t30 -101t8 -114v-492 q0 -33 3 -79.5t6 -76.5l3 -30l-158 -16l-20 112q-107 -62 -189 -92.5t-170 -30.5q-142 0 -220.5 70t-78.5 217zM236 260q0 -69 42.5 -106t116.5 -37q92 0 169 31t157 92v233q-141 -6 -215 -16q-146 -19 -208 -65t-62 -132zM314 1413q0 95 62.5 159.5t154.5 64.5 q96 0 161.5 -64.5t65.5 -159.5q0 -92 -66 -156.5t-161 -64.5q-92 0 -154.5 64t-62.5 157zM418 1413q0 -49 33.5 -82.5t83.5 -33.5t84.5 33.5t34.5 82.5t-35 84t-84 35t-83 -34.5t-34 -84.5z" />
<glyph unicode="&#xe6;" horiz-adv-x="1650" d="M61 260q0 64 24.5 116.5t66 89t100 63.5t122.5 41t136 20l201 16l8 56q18 123 -28 184t-173 61q-69 0 -145.5 -9.5t-118.5 -19.5l-41 -10l-35 146q172 37 375 37q208 0 285 -140q131 140 356 140q78 0 141.5 -25.5t107.5 -70t74 -106.5t44 -133.5t14 -152.5l-31 -90h-663 q0 -71 19.5 -133t59 -113t107 -80.5t154.5 -29.5q74 0 142 11t99 22l31 12l31 -133q-18 -6 -48.5 -15.5t-118.5 -25t-167 -15.5q-118 0 -210.5 38t-166.5 130q-7 -7 -21 -18t-60.5 -40t-96 -51.5t-124.5 -40.5t-151 -18q-299 0 -299 287zM233 260q0 -69 44 -106t118 -37 q174 0 350 133q-15 40 -25 95.5t-12 91.5l-3 36q-136 -8 -199 -16q-146 -19 -209.5 -65t-63.5 -132zM889 604h516q0 12 -1.5 29.5t-7 47.5t-14.5 59t-26.5 60t-40.5 54t-59 38t-80 15q-65 0 -117.5 -24t-83 -59t-51 -78.5t-28 -78.5t-7.5 -63z" />
<glyph unicode="&#xe7;" horiz-adv-x="894" d="M92 510q0 112 26 203.5t70 153.5t105 104t129 61t143 19q59 0 122.5 -8.5t97.5 -16.5l34 -8l-33 -137q-115 26 -221 26q-71 0 -125.5 -24.5t-86.5 -63.5t-52.5 -93.5t-27.5 -106.5t-7 -111q0 -102 26 -179t71.5 -122.5t101.5 -67.5t121 -22q52 0 107 8.5t85 17.5l29 9 l33 -138q-123 -41 -275 -41q-234 0 -353.5 126t-119.5 411zM340 -403q49 53 74 101.5t28.5 72t3.5 59.5v49h162v-49q0 -84 -29 -156.5t-122 -173.5z" />
<glyph unicode="&#xe8;" horiz-adv-x="1036" d="M90 508q0 258 134 400.5t345 142.5q97 0 173 -39t123 -106.5t71.5 -154.5t24.5 -188l-31 -90h-662q0 -68 17.5 -128t55 -113t105.5 -84t160 -31q74 0 142 11t100 22l31 12l30 -137q-18 -6 -48.5 -14.5t-118.5 -23t-167 -14.5q-106 0 -191.5 29.5t-152.5 91t-104 167 t-37 247.5zM274 604h517q0 19 -3 47t-17 75.5t-36.5 85.5t-68 66.5t-105.5 28.5q-65 0 -117.5 -24t-83 -59t-51 -78.5t-28 -78.5t-7.5 -63zM289 1454l106 125l353 -256l-70 -92z" />
<glyph unicode="&#xe9;" horiz-adv-x="1036" d="M90 508q0 258 134 400.5t345 142.5q97 0 173 -39t123 -106.5t71.5 -154.5t24.5 -188l-31 -90h-662q0 -68 17.5 -128t55 -113t105.5 -84t160 -31q74 0 142 11t100 22l31 12l30 -137q-18 -6 -48.5 -14.5t-118.5 -23t-167 -14.5q-106 0 -191.5 29.5t-152.5 91t-104 167 t-37 247.5zM274 604h517q0 19 -3 47t-17 75.5t-36.5 85.5t-68 66.5t-105.5 28.5q-65 0 -117.5 -24t-83 -59t-51 -78.5t-28 -78.5t-7.5 -63zM338 1323l352 256l107 -125l-390 -223z" />
<glyph unicode="&#xea;" horiz-adv-x="1036" d="M90 508q0 258 134 400.5t345 142.5q97 0 173 -39t123 -106.5t71.5 -154.5t24.5 -188l-31 -90h-662q0 -68 17.5 -128t55 -113t105.5 -84t160 -31q74 0 142 11t100 22l31 12l30 -137q-18 -6 -48.5 -14.5t-118.5 -23t-167 -14.5q-106 0 -191.5 29.5t-152.5 91t-104 167 t-37 247.5zM238 1296l276 281h82l276 -281l-81 -67l-236 198l-236 -198zM274 604h517q0 19 -3 47t-17 75.5t-36.5 85.5t-68 66.5t-105.5 28.5q-65 0 -117.5 -24t-83 -59t-51 -78.5t-28 -78.5t-7.5 -63z" />
<glyph unicode="&#xeb;" horiz-adv-x="1036" d="M90 508q0 258 134 400.5t345 142.5q97 0 173 -39t123 -106.5t71.5 -154.5t24.5 -188l-31 -90h-662q0 -68 17.5 -128t55 -113t105.5 -84t160 -31q74 0 142 11t100 22l31 12l30 -137q-18 -6 -48.5 -14.5t-118.5 -23t-167 -14.5q-106 0 -191.5 29.5t-152.5 91t-104 167 t-37 247.5zM258 1325q0 46 32 78.5t78 32.5q49 0 83 -32.5t34 -78.5q0 -47 -33.5 -79t-83.5 -32q-46 0 -78 32t-32 79zM274 604h517q0 19 -3 47t-17 75.5t-36.5 85.5t-68 66.5t-105.5 28.5q-65 0 -117.5 -24t-83 -59t-51 -78.5t-28 -78.5t-7.5 -63zM608 1325q0 46 32.5 78.5 t78.5 32.5q49 0 82.5 -32.5t33.5 -78.5q0 -47 -33.5 -79t-82.5 -32q-46 0 -78.5 32t-32.5 79z" />
<glyph unicode="&#xec;" horiz-adv-x="458" d="M-84 1452l107 125l352 -256l-70 -92zM147 0v1032l164 19v-1051h-164z" />
<glyph unicode="&#xed;" horiz-adv-x="458" d="M80 1321l352 256l107 -125l-390 -223zM147 0v1032l164 19v-1051h-164z" />
<glyph unicode="&#xee;" horiz-adv-x="458" d="M-90 1296l276 281h82l277 -281l-82 -67l-236 198l-235 -198zM147 0v1032l164 19v-1051h-164z" />
<glyph unicode="&#xef;" horiz-adv-x="458" d="M-61 1325q0 46 32 78.5t78 32.5q49 0 83 -32.5t34 -78.5q0 -47 -33.5 -79t-83.5 -32q-46 0 -78 32t-32 79zM147 0v1032l164 19v-1051h-164zM289 1325q0 46 32.5 78.5t78.5 32.5q49 0 82.5 -32.5t33.5 -78.5q0 -47 -33.5 -79t-82.5 -32q-46 0 -78.5 32t-32.5 79z" />
<glyph unicode="&#xf0;" horiz-adv-x="1050" d="M66 387q0 88 29.5 160.5t76 119.5t106.5 79.5t118.5 46.5t113.5 14q54 0 114.5 -7.5t93.5 -14.5l34 -7q-37 120 -134 256l-165 -129l-78 99l166 126q-57 66 -162 175l119 110q20 -22 80.5 -88t89.5 -100l182 137l74 -96l-179 -138q100 -133 150.5 -269t50.5 -312 q0 -280 -119.5 -428t-324.5 -148q-218 0 -327 110.5t-109 303.5zM240 383q0 -74 22 -127.5t60.5 -82t83.5 -41.5t98 -13q132 0 197 99t71 312q1 21 -0.5 48.5t-3.5 45.5l-2 17q-106 23 -231 23q-144 0 -219.5 -73.5t-75.5 -207.5z" />
<glyph unicode="&#xf1;" horiz-adv-x="1120" d="M139 1012l152 20l22 -131q9 6 24.5 16t60.5 36t88 46t98 36t98 16q168 0 232.5 -84t64.5 -303v-664h-164v645v52t-1.5 46t-4.5 42.5t-8 35t-13 31.5t-19.5 23t-27 18.5t-36 9.5t-46.5 4q-63 0 -149.5 -37.5t-141.5 -74.5l-55 -37v-758h-163v825q0 36 -3 83t-5 76z M215 1305q87 119 227 119q50 0 101 -20.5t93 -41t70 -20.5q29 0 54 13t38.5 28t30.5 39l111 -84q-104 -129 -211 -129q-58 0 -113 20.5t-97.5 41t-68.5 20.5q-72 0 -129 -76z" />
<glyph unicode="&#xf2;" horiz-adv-x="1175" d="M90 512q0 120 33 215.5t84.5 154.5t119.5 98.5t133.5 55t131.5 15.5q53 0 106 -10.5t110 -33.5t105.5 -64t87.5 -97t61.5 -139t22.5 -183q0 -123 -33.5 -221.5t-85.5 -158.5t-120.5 -100t-133.5 -55.5t-130 -15.5q-67 0 -131 14.5t-131 53t-117 97t-81.5 155.5t-31.5 219 zM264 510q0 -194 87.5 -293.5t242.5 -99.5q151 0 234 98.5t83 286.5q0 199 -87.5 302t-243.5 103q-155 0 -235.5 -100t-80.5 -297zM317 1454l107 125l352 -256l-69 -92z" />
<glyph unicode="&#xf3;" horiz-adv-x="1175" d="M90 512q0 120 33 215.5t84.5 154.5t119.5 98.5t133.5 55t131.5 15.5q53 0 106 -10.5t110 -33.5t105.5 -64t87.5 -97t61.5 -139t22.5 -183q0 -123 -33.5 -221.5t-85.5 -158.5t-120.5 -100t-133.5 -55.5t-130 -15.5q-67 0 -131 14.5t-131 53t-117 97t-81.5 155.5t-31.5 219 zM264 510q0 -194 87.5 -293.5t242.5 -99.5q151 0 234 98.5t83 286.5q0 199 -87.5 302t-243.5 103q-155 0 -235.5 -100t-80.5 -297zM371 1321l352 256l107 -125l-390 -223z" />
<glyph unicode="&#xf4;" horiz-adv-x="1175" d="M90 512q0 120 33 215.5t84.5 154.5t119.5 98.5t133.5 55t131.5 15.5q53 0 106 -10.5t110 -33.5t105.5 -64t87.5 -97t61.5 -139t22.5 -183q0 -123 -33.5 -221.5t-85.5 -158.5t-120.5 -100t-133.5 -55.5t-130 -15.5q-67 0 -131 14.5t-131 53t-117 97t-81.5 155.5t-31.5 219 zM264 510q0 -194 87.5 -293.5t242.5 -99.5q151 0 234 98.5t83 286.5q0 199 -87.5 302t-243.5 103q-155 0 -235.5 -100t-80.5 -297zM276 1296l277 281h82l276 -281l-82 -67l-235 198l-236 -198z" />
<glyph unicode="&#xf5;" horiz-adv-x="1175" d="M90 512q0 120 33 215.5t84.5 154.5t119.5 98.5t133.5 55t131.5 15.5q53 0 106 -10.5t110 -33.5t105.5 -64t87.5 -97t61.5 -139t22.5 -183q0 -123 -33.5 -221.5t-85.5 -158.5t-120.5 -100t-133.5 -55.5t-130 -15.5q-67 0 -131 14.5t-131 53t-117 97t-81.5 155.5t-31.5 219 zM232 1325q87 119 227 119q50 0 101 -20.5t93 -41t70 -20.5q29 0 54 13t38.5 28t30.5 39l111 -84q-104 -129 -211 -129q-58 0 -113 20.5t-97.5 41t-68.5 20.5q-72 0 -129 -76zM264 510q0 -194 87.5 -293.5t242.5 -99.5q151 0 234 98.5t83 286.5q0 199 -87.5 302t-243.5 103 q-155 0 -235.5 -100t-80.5 -297z" />
<glyph unicode="&#xf6;" horiz-adv-x="1175" d="M90 512q0 120 33 215.5t84.5 154.5t119.5 98.5t133.5 55t131.5 15.5q53 0 106 -10.5t110 -33.5t105.5 -64t87.5 -97t61.5 -139t22.5 -183q0 -123 -33.5 -221.5t-85.5 -158.5t-120.5 -100t-133.5 -55.5t-130 -15.5q-67 0 -131 14.5t-131 53t-117 97t-81.5 155.5t-31.5 219 zM264 510q0 -194 87.5 -293.5t242.5 -99.5q151 0 234 98.5t83 286.5q0 199 -87.5 302t-243.5 103q-155 0 -235.5 -100t-80.5 -297zM311 1325q0 46 32 78.5t78 32.5q49 0 83 -32.5t34 -78.5q0 -47 -33.5 -79t-83.5 -32q-46 0 -78 32t-32 79zM661 1325q0 46 32.5 78.5 t78.5 32.5q49 0 82.5 -32.5t33.5 -78.5q0 -47 -33.5 -79t-82.5 -32q-46 0 -78.5 32t-32.5 79z" />
<glyph unicode="&#xf7;" horiz-adv-x="1130" d="M115 498v164h901v-164h-901zM444 227q0 53 35 88t86 35q53 0 87 -34.5t34 -88.5q0 -51 -34.5 -84.5t-86.5 -33.5q-51 0 -86 33.5t-35 84.5zM444 928q0 54 35 88.5t86 34.5q53 0 87 -34.5t34 -88.5q0 -51 -34.5 -85t-86.5 -34q-51 0 -86 34t-35 85z" />
<glyph unicode="&#xf8;" horiz-adv-x="1175" d="M90 512q0 120 33 215.5t84.5 154.5t119.5 98.5t133.5 55t131.5 15.5q175 0 305 -95l109 129l94 -77l-115 -138q100 -136 100 -346q0 -123 -33.5 -221.5t-85.5 -158.5t-120.5 -100t-133.5 -55.5t-130 -15.5q-163 0 -283 78l-100 -119l-95 78l103 123q-117 137 -117 379z M264 510q0 -154 53 -246l478 570q-82 73 -215 73q-155 0 -235.5 -100t-80.5 -297zM399 172q72 -55 195 -55q151 0 234 98.5t83 286.5q0 132 -43 229z" />
<glyph unicode="&#xf9;" horiz-adv-x="1077" d="M141 360v670h164v-645q0 -40 0.5 -59t2 -50.5t5 -47t9.5 -37.5t16 -32.5t24 -22t33.5 -15.5t44.5 -4q39 0 87 15t88.5 37t75 43.5t53.5 36.5l20 15v766h164v-897q0 -29 2.5 -62.5t5.5 -52.5l2 -18l-162 -16l-12 129h-4q-35 -28 -77.5 -55t-119.5 -56t-145 -29 q-154 0 -215.5 84.5t-61.5 302.5zM281 1454l106 125l352 -256l-69 -92z" />
<glyph unicode="&#xfa;" horiz-adv-x="1077" d="M141 360v670h164v-645q0 -40 0.5 -59t2 -50.5t5 -47t9.5 -37.5t16 -32.5t24 -22t33.5 -15.5t44.5 -4q39 0 87 15t88.5 37t75 43.5t53.5 36.5l20 15v766h164v-897q0 -29 2.5 -62.5t5.5 -52.5l2 -18l-162 -16l-12 129h-4q-35 -28 -77.5 -55t-119.5 -56t-145 -29 q-154 0 -215.5 84.5t-61.5 302.5zM324 1323l352 256l106 -125l-389 -223z" />
<glyph unicode="&#xfb;" horiz-adv-x="1077" d="M141 360v670h164v-645q0 -40 0.5 -59t2 -50.5t5 -47t9.5 -37.5t16 -32.5t24 -22t33.5 -15.5t44.5 -4q39 0 87 15t88.5 37t75 43.5t53.5 36.5l20 15v766h164v-897q0 -29 2.5 -62.5t5.5 -52.5l2 -18l-162 -16l-12 129h-4q-35 -28 -77.5 -55t-119.5 -56t-145 -29 q-154 0 -215.5 84.5t-61.5 302.5zM221 1296l277 281h82l276 -281l-82 -67l-235 198l-236 -198z" />
<glyph unicode="&#xfc;" horiz-adv-x="1077" d="M141 360v670h164v-645q0 -40 0.5 -59t2 -50.5t5 -47t9.5 -37.5t16 -32.5t24 -22t33.5 -15.5t44.5 -4q39 0 87 15t88.5 37t75 43.5t53.5 36.5l20 15v766h164v-897q0 -29 2.5 -62.5t5.5 -52.5l2 -18l-162 -16l-12 129h-4q-35 -28 -77.5 -55t-119.5 -56t-145 -29 q-154 0 -215.5 84.5t-61.5 302.5zM252 1325q0 46 32 78.5t78 32.5q49 0 83 -32.5t34 -78.5q0 -47 -33.5 -79t-83.5 -32q-46 0 -78 32t-32 79zM602 1325q0 46 32.5 78.5t78.5 32.5q49 0 82.5 -32.5t33.5 -78.5q0 -47 -33.5 -79t-82.5 -32q-46 0 -78.5 32t-32.5 79z" />
<glyph unicode="&#xfd;" horiz-adv-x="1017" d="M14 1030h174l193 -465q33 -79 66 -174t50 -150l17 -55h2q65 201 135 379l178 465h172l-487 -1229q-22 -56 -58 -107t-71.5 -84t-68 -58t-52.5 -36l-20 -12l-80 142q6 3 16 8.5t38.5 25t52.5 42t50.5 59.5t40.5 78l64 168zM264 1339l352 256l107 -125l-390 -223z" />
<glyph unicode="&#xfe;" horiz-adv-x="1103" d="M147 -467v2001l164 18v-610q6 4 17.5 11.5t45.5 26.5t67 33t77.5 26t81.5 12q179 0 295.5 -137t116.5 -398q0 -117 -28 -210.5t-75 -154.5t-111.5 -102t-135.5 -58.5t-150 -17.5q-99 0 -201 23v-463h-164zM311 152q95 -35 201 -35q93 0 157.5 26.5t101 79t52 121.5 t15.5 164q0 101 -27 189.5t-87 149t-142 60.5q-50 0 -118 -28t-110 -56l-43 -28v-643z" />
<glyph unicode="&#xff;" horiz-adv-x="1017" d="M14 1030h174l193 -465q33 -79 66 -174t50 -150l17 -55h2q65 201 135 379l178 465h172l-487 -1229q-22 -56 -58 -107t-71.5 -84t-68 -58t-52.5 -36l-20 -12l-80 142q6 3 16 8.5t38.5 25t52.5 42t50.5 59.5t40.5 78l64 168zM221 1346q0 46 32.5 78t78.5 32q49 0 83 -32 t34 -78q0 -47 -33.5 -79t-83.5 -32q-46 0 -78.5 32t-32.5 79zM571 1346q0 46 32.5 78t78.5 32q49 0 83 -32t34 -78q0 -47 -33.5 -79t-83.5 -32q-46 0 -78.5 32t-32.5 79z" />
<glyph unicode="&#x152;" horiz-adv-x="1863" d="M104 702q0 176 52 309.5t149 217.5t230.5 126t300.5 42h909v-158h-684v-446h635v-154h-635v-481h704v-158h-929q-156 0 -287 43t-231.5 127.5t-157 220.5t-56.5 311zM289 702q0 -145 42.5 -252.5t119 -170t172.5 -92t213 -29.5h53v1081h-53q-259 0 -403 -133.5 t-144 -403.5z" />
<glyph unicode="&#x153;" horiz-adv-x="1839" d="M90 516q0 113 30.5 205.5t79.5 152.5t114 101t131.5 58.5t134.5 17.5q274 0 407 -193q119 193 395 193q78 0 141.5 -25.5t107.5 -70t74 -106.5t44 -133.5t14 -152.5l-30 -90h-662v-45q6 -62 26.5 -115t58.5 -98.5t103 -71.5t150 -26q74 0 142 11t99 22l31 12l31 -133 q-18 -6 -48.5 -15.5t-118.5 -25t-167 -15.5q-274 0 -395 197q-72 -103 -181.5 -150t-221.5 -47q-66 0 -128.5 13.5t-130 51.5t-117.5 96.5t-82 157t-32 224.5zM264 516q0 -194 82 -296.5t234 -102.5q163 0 247 95.5t84 303.5q0 193 -88 292t-243 99q-158 0 -237 -100 t-79 -291zM1077 604h516q0 12 -1.5 29.5t-7 47.5t-14.5 59t-26.5 60t-40.5 54t-59 38t-80 15q-65 0 -117.5 -24t-83 -59t-51 -78.5t-28 -78.5t-7.5 -63z" />
<glyph unicode="&#x178;" horiz-adv-x="1116" d="M25 1397h190l342 -678l344 678h191l-447 -889v-508h-174v508zM270 1665q0 46 32.5 78.5t78.5 32.5q49 0 83 -32.5t34 -78.5q0 -47 -33.5 -79t-83.5 -32q-46 0 -78.5 32t-32.5 79zM621 1665q0 46 32 78.5t78 32.5q49 0 83 -32.5t34 -78.5q0 -47 -33.5 -79t-83.5 -32 q-46 0 -78 32t-32 79z" />
<glyph unicode="&#x2c6;" horiz-adv-x="1044" d="M205 1296l276 281h82l277 -281l-82 -67l-236 198l-235 -198z" />
<glyph unicode="&#x2dc;" horiz-adv-x="1134" d="M205 1325q87 119 227 119q50 0 101 -20.5t93 -41t70 -20.5q29 0 54 13t38.5 28t30.5 39l111 -84q-104 -129 -211 -129q-58 0 -113 20.5t-97.5 41t-68.5 20.5q-72 0 -129 -76z" />
<glyph unicode="&#x2000;" horiz-adv-x="963" />
<glyph unicode="&#x2001;" horiz-adv-x="1927" />
<glyph unicode="&#x2002;" horiz-adv-x="963" />
<glyph unicode="&#x2003;" horiz-adv-x="1927" />
<glyph unicode="&#x2004;" horiz-adv-x="642" />
<glyph unicode="&#x2005;" horiz-adv-x="481" />
<glyph unicode="&#x2006;" horiz-adv-x="321" />
<glyph unicode="&#x2007;" horiz-adv-x="321" />
<glyph unicode="&#x2008;" horiz-adv-x="240" />
<glyph unicode="&#x2009;" horiz-adv-x="385" />
<glyph unicode="&#x200a;" horiz-adv-x="107" />
<glyph unicode="&#x2010;" horiz-adv-x="800" d="M127 451v151h547v-151h-547z" />
<glyph unicode="&#x2011;" horiz-adv-x="800" d="M127 451v151h547v-151h-547z" />
<glyph unicode="&#x2012;" horiz-adv-x="800" d="M127 451v151h547v-151h-547z" />
<glyph unicode="&#x2013;" horiz-adv-x="1159" d="M129 438v164h901v-164h-901z" />
<glyph unicode="&#x2014;" horiz-adv-x="1630" d="M129 438v164h1372v-164h-1372z" />
<glyph unicode="&#x2018;" horiz-adv-x="411" d="M119 1061v158q0 58 29.5 148t59.5 151l30 61l127 -23q-9 -22 -22 -58t-34.5 -120t-21.5 -135v-164z" />
<glyph unicode="&#x2019;" horiz-adv-x="417" d="M94 1081q9 22 22 58.5t34.5 120.5t21.5 135v164l168 18v-158q0 -58 -30 -148t-60 -151l-29 -61z" />
<glyph unicode="&#x201a;" horiz-adv-x="423" d="M49 -229q9 22 22 58t34.5 120t21.5 135v164l168 18v-157q0 -58 -29.5 -148.5t-59.5 -151.5l-30 -61z" />
<glyph unicode="&#x201c;" horiz-adv-x="714" d="M119 1044v158q0 58 29.5 148.5t59.5 151.5l30 61l127 -23q-9 -22 -22 -58t-34.5 -120t-21.5 -135v-164zM418 1044v158q0 58 30 148.5t60 151.5l29 61l127 -23q-9 -22 -22 -58t-34.5 -120t-21.5 -135v-164z" />
<glyph unicode="&#x201d;" horiz-adv-x="727" d="M90 1075q9 22 22 58.5t34.5 120.5t21.5 135v163l168 19v-158q0 -58 -30 -148t-60 -151l-29 -61zM403 1075q9 22 22 58.5t34.5 120.5t21.5 135v163l168 19v-158q0 -58 -29.5 -148t-59.5 -151l-30 -61z" />
<glyph unicode="&#x201e;" horiz-adv-x="714" d="M49 -229q9 22 22 58t34.5 120t21.5 135v164l168 18v-157q0 -58 -29.5 -148.5t-59.5 -151.5l-30 -61zM340 -229q9 22 22 58t34.5 120t21.5 135v164l168 18v-157q0 -58 -30 -148.5t-60 -151.5l-29 -61z" />
<glyph unicode="&#x2022;" horiz-adv-x="698" d="M94 547q0 100 75 172t179 72q103 0 180.5 -72.5t77.5 -171.5q0 -107 -77.5 -184.5t-180.5 -77.5q-104 0 -179 77.5t-75 184.5z" />
<glyph unicode="&#x2026;" horiz-adv-x="1382" d="M104 111q0 46 32.5 78t78.5 32q49 0 83 -32t34 -78q0 -47 -33.5 -79t-83.5 -32q-46 0 -78.5 32t-32.5 79zM578 111q0 46 32 78t78 32q49 0 83 -32t34 -78q0 -47 -33.5 -79t-83.5 -32q-46 0 -78 32t-32 79zM1051 111q0 46 32 78t78 32q49 0 83 -32t34 -78q0 -47 -33.5 -79 t-83.5 -32q-46 0 -78 32t-32 79z" />
<glyph unicode="&#x202f;" horiz-adv-x="385" />
<glyph unicode="&#x2039;" horiz-adv-x="669" d="M80 522l391 465l109 -92l-312 -373l312 -372l-109 -93z" />
<glyph unicode="&#x203a;" horiz-adv-x="669" d="M90 150l311 372l-311 373l109 92l391 -465l-391 -465z" />
<glyph unicode="&#x205f;" horiz-adv-x="481" />
<glyph unicode="&#x20ac;" horiz-adv-x="1206" d="M94 512v133h180v152h-180v133h195q85 485 481 485q56 0 137 -7.5t134 -15.5l53 -8l-27 -143q-203 31 -305 31q-70 0 -122.5 -25t-86 -74t-54.5 -106.5t-36 -136.5h446v-133h-452v-152h452v-133h-444q6 -46 9.5 -72.5t10 -64.5t12.5 -59.5t16 -50.5t22 -44.5t28.5 -35 t37 -29.5t46 -20t57.5 -13.5t70 -3.5q46 0 124.5 10.5t133.5 20.5l55 10l25 -142q-215 -43 -375 -43q-197 0 -295.5 118.5t-152.5 418.5h-195z" />
<glyph unicode="&#x2122;" horiz-adv-x="1845" d="M92 1452v102h580v-102h-230v-737h-120v737h-230zM762 715l45 839h131l262 -690h2l264 690h131l43 -839h-104l-35 542q-2 25 0 48.5t5 34.5l3 10h-2l-254 -635h-104l-256 635h-2q8 -34 8 -93l-33 -542h-104z" />
<glyph unicode="&#x25fc;" horiz-adv-x="1034" d="M0 0v1034h1034v-1034h-1034z" />
</font>
</defs>
</svg>
