<?xml version="1.0" encoding="UTF-8" standalone="no"?>
<svg width="164px" height="200px" viewBox="0 0 164 200" version="1.1" xmlns="http://www.w3.org/2000/svg" xmlns:xlink="http://www.w3.org/1999/xlink" xmlns:sketch="http://www.bohemiancoding.com/sketch/ns">
    <!-- Generator: Sketch 3.2.2 (9983) - http://www.bohemiancoding.com/sketch -->
    <title>grapes</title>
    <desc>Created with Sketch.</desc>
    <defs></defs>
    <g id="Page-1" stroke="none" stroke-width="1" fill="none" fill-rule="evenodd" sketch:type="MSPage">
        <g id="grapes" sketch:type="MSLayerGroup" fill="#AE0035">
            <path d="M0,0 C0,0 65.473,70.802 164.086,72.07 C164.086,72.07 130.846,59.758 93.78,44.642 C56.287,29.352 14.878,11.191 0,0 L0,0 Z" id="Shape" sketch:type="MSShapeGroup"></path>
            <path d="M106.777,11.211 C106.777,11.211 91.802,21.313 93.78,40.642 C95.758,59.971 105.951,13.966 106.777,11.211 L106.777,11.211 Z" id="Shape" sketch:type="MSShapeGroup"></path>
            <circle id="Oval" sketch:type="MSShapeGroup" cx="97.223" cy="181.438" r="18.562"></circle>
            <circle id="Oval" sketch:type="MSShapeGroup" cx="37.036" cy="92.264" r="21.322"></circle>
            <circle id="Oval" sketch:type="MSShapeGroup" cx="139.123" cy="96.754" r="24.242"></circle>
            <circle id="Oval" sketch:type="MSShapeGroup" cx="113.437" cy="139.394" r="13.606"></circle>
            <path d="M52.972,136.396 C52.972,126.281 61.168,118.086 71.278,118.086 C81.387,118.086 89.584,126.28 89.584,136.396 C89.584,146.504 81.387,154.7 71.278,154.7 C61.168,154.699 52.972,146.504 52.972,136.396 L52.972,136.396 Z" id="Shape" sketch:type="MSShapeGroup"></path>
            <path d="M68.73,91.919 C68.73,81.166 77.445,72.453 88.194,72.453 C98.946,72.453 107.662,81.166 107.662,91.919 C107.662,102.672 98.948,111.384 88.194,111.384 C77.446,111.384 68.73,102.67 68.73,91.919 L68.73,91.919 Z" id="Shape" sketch:type="MSShapeGroup"></path>
        </g>
    </g>
</svg>