<svg xmlns="http://www.w3.org/2000/svg" width="85" height="118"><path d="M.022 59.106v-59.341h85.086v118.682h-85.086v-59.341z" fill="#900"/><path d="M83.535 59.106v-57.767h-81.938v115.534h81.938v-57.767z" fill="#fff"/><path d="M34.813 105.281c-.487-.017-.858.072-1.281.281-.334.165-.648.413-.844.688l-.094.094v-.907h-1.062v9.157h1.126v-3.562l.094.125.219.25c.347.368.777.586 1.375.656.211.025.727.006.906-.031.301-.062.569-.181.813-.344.171-.114.422-.376.563-.563.387-.516.642-1.226.719-2.063.019-.203.019-.781 0-.969-.073-.729-.277-1.355-.625-1.844-.104-.146-.389-.396-.531-.5-.395-.291-.839-.45-1.375-.469zm-.594.969c.143-.022.27-.015.406 0 .362.04.661.159.906.406.46.463.684 1.29.625 2.25-.044.726-.293 1.383-.688 1.781-.188.19-.407.304-.656.375-.076.022-.165.027-.344.031-.243.005-.351-.001-.531-.063-.553-.188-.991-.746-1.188-1.5-.13-.498-.145-1.116-.031-1.625.166-.739.578-1.297 1.094-1.531.123-.056.263-.103.406-.125z" fill="#900"/><path d="M21.125 102.375v3.938l-.063-.031c-.041-.079-.181-.306-.281-.406-.15-.15-.323-.242-.531-.344-.21-.103-.393-.172-.656-.219-.246-.044-.78-.04-1 0-.4.074-.703.219-1 .438-.14.103-.426.353-.531.5-.466.652-.706 1.566-.656 2.563.054 1.094.383 1.987.938 2.563.379.393.778.598 1.375.688h.406c.293-.004.35.001.5-.031.626-.133 1.139-.47 1.469-.938l.063-.094c.006 0 .031.215.031.469v.469h1.062v-9.562h-1.126zm-2 3.875c.285-.028.594.012.844.125.483.219.889.739 1.063 1.406.068.261.086.462.094.781.012.458-.03.808-.156 1.188-.238.713-.673 1.159-1.25 1.313-.095.025-.157.028-.344.031h-.281l-.125-.031c-.239-.055-.451-.169-.656-.375-.23-.231-.407-.56-.531-.938-.142-.431-.186-.859-.156-1.406.06-1.083.498-1.824 1.219-2.031l.281-.063z" fill="#900"/><path d="M26.688 105.281c-.569.062-1.076.272-1.469.594-.205.168-.455.436-.594.656-.35.555-.531 1.256-.531 2.031 0 1.04.235 1.905.719 2.5.116.143.345.358.5.469.154.11.498.28.688.344.24.081.536.149.875.188h.469c.361-.004.499-.007.656-.031.347-.054.581-.15 1-.313l.219-.063v-1.188l-.063.031c-.187.147-.57.32-.938.438-.554.178-1.035.228-1.469.094-.697-.215-1.257-.85-1.406-1.594-.026-.13-.063-.349-.063-.438v-.063h4.407v-.281c-.028-.849-.153-1.502-.406-2.031-.144-.301-.261-.442-.469-.656-.345-.357-.786-.569-1.344-.656-.196-.031-.592-.052-.781-.031zm.125.969c.189-.013.385.011.563.063.593.172 1.012.717 1.094 1.469v.28200000000000003h-3.188l.031-.094c.079-.566.262-.979.563-1.281.138-.139.237-.233.406-.313.159-.075.343-.112.531-.125z" fill="#900"/><path d="M41.625 105.281c-.191.003-.371.026-.563.063-.337.065-.759.212-1.031.406-.159.113-.41.349-.531.5-.582.721-.818 1.761-.688 2.938.186 1.679 1.079 2.652 2.625 2.844.257.032.992.04 1.25 0 .351-.055.779-.173 1.188-.344l.031-.031v-1.188l-.156.094c-.293.194-.741.373-1.156.469-.28.064-.676.103-.906.063-.826-.144-1.473-.778-1.656-1.625-.027-.126-.031-.378-.031-.469v-.063h4.376v-.313c-.041-1.444-.462-2.432-1.219-2.938-.408-.273-.959-.415-1.531-.406zm.094.969c.771.043 1.321.592 1.438 1.469l.031.25v.094h-3.2190000000000003l.031-.063.031-.25c.123-.627.438-1.113.875-1.344.237-.125.53-.172.813-.156z" fill="#900"/><path d="M58.188 102.375v3.938l-.031-.031c-.057-.096-.217-.311-.313-.406-.404-.404-.974-.594-1.688-.594-.681 0-1.265.196-1.719.625-.668.631-.992 1.668-.938 2.906.028.645.154 1.226.375 1.719.155.345.293.597.531.844.383.398.79.594 1.406.688.098.015.587-.013.719-.031.672-.096 1.22-.409 1.594-.906l.125-.125v.938h1.062v-9.562h-1.126zm-1.844 3.875c.313-.004.64.073.906.25.469.312.787.901.906 1.656.036.233.037.809 0 1.031-.175 1.061-.699 1.759-1.469 1.906-.154.03-.44.001-.594-.031-.26-.055-.504-.159-.719-.375-.495-.499-.743-1.358-.688-2.313.05-.867.34-1.492.813-1.844.247-.184.531-.277.844-.281z" fill="#900"/><path d="M63.375 105.313c-.482.075-.955.225-1.375.469l-.156.094v.063l.031.5.031.438.125-.063c.337-.257.766-.451 1.219-.531.242-.043.659-.039.875 0 .695.125 1.022.512 1.094 1.344v.28200000000000003h-.781c-.768 0-.82-.001-1.031.031-1.297.198-2.078.859-2.219 1.813-.029.197-.037.573 0 .781.046.261.147.514.281.719.08.122.337.352.469.438.266.173.62.3.969.344l.156.031h.375c.282-.004.355-.006.469-.031.549-.12 1.042-.427 1.375-.875l.063-.094v.876h1.062v-.094c-.028-.274-.031-.834-.031-2.375 0-1.698-.018-1.949-.063-2.25-.123-.829-.478-1.358-1.063-1.656-.25-.128-.505-.198-.875-.25-.2-.029-.799-.031-1 0zm1.688 3.5l.156.031v.406c-.005.29-.016.449-.031.531-.132.689-.573 1.131-1.25 1.281-.124.028-.558.052-.656.031-.318-.067-.59-.259-.75-.5-.218-.329-.218-.797 0-1.125.226-.34.656-.528 1.344-.625.198-.028.903-.054 1.188-.031z" fill="#900"/><path d="M78.231 112.042c-.433-.066-.761-.223-1.008-.485-.239-.253-.375-.566-.431-.992-.018-.136-.021-.474-.021-2.167v-2.006h-1.39v-.964h1.39l.004-.755.004-.755.553-.188.564-.188c.006 0 .011.424.011.943v.943h1.63v.964h-1.632l.004 1.911.004 1.911.032.121c.102.385.356.659.69.744.099.025.346.029.469.007.133-.024.272-.071.401-.137l.125-.061.002.507-.004.507-.234.06-.385.082c-.188.028-.591.027-.778-.001z" fill="#900"/><path d="M5.624 108.676v-3.247h1.134v6.494h-1.134v-3.247z" fill="#900"/><path d="M9.141 108.676v-3.247h1.092v.518c0 .317.005.518.013.518l.074-.117c.243-.467.757-.849 1.342-.996.622-.157 1.382-.067 1.861.22.163.098.247.165.388.311.345.358.549.859.642 1.574.022.173.025.392.03 2.329l.005 2.138h-1.134l-.006-1.953c-.006-2.071-.006-2.064-.075-2.47-.093-.544-.31-.917-.645-1.105-.372-.209-.924-.202-1.368.018-.577.287-.907.863-1.046 1.823-.029.198-.03.269-.035 1.946l-.005 1.741h-1.134v-3.247z" fill="#900"/><path d="M46.21 108.676v-3.247h1.092v.518l.011.518.044-.067c.151-.312.481-.643.835-.837.666-.365 1.615-.384 2.295-.045.612.305.993.93 1.12 1.834.045.323.051.644.047 2.61l-.004 1.957-.563.003-.563.003-.006-1.947c-.004-1.376-.011-1.992-.023-2.103-.074-.678-.219-1.068-.495-1.328-.151-.142-.317-.226-.542-.274-.418-.089-.918.024-1.269.286-.472.353-.751.994-.83 1.905-.008.095-.014.847-.014 1.812v1.649h-1.134v-3.247z" fill="#900"/><path d="M68.583 111.914c-.005-.005-.01-1.467-.01-3.248v-3.238h1.106v.518l.011.518.044-.067c.067-.139.218-.346.347-.475.483-.482 1.19-.712 1.954-.634.712.072 1.23.374 1.569.914.12.191.243.502.309.78.111.47.123.766.117 3.091l-.004 1.844h-1.134l-.008-2c-.009-2.088-.008-2.075-.069-2.418-.092-.517-.28-.865-.57-1.058-.235-.156-.558-.227-.87-.191-.383.045-.688.181-.942.42-.289.273-.515.722-.617 1.229-.086.428-.083.346-.092 2.258l-.008 1.758-.561.003-.571-.006z" fill="#900"/><path d="M5.553 103.294v-.674h1.276v1.348h-1.276v-.674z" fill="#900"/><path d="M24.563 88.938c-1.157-.07-2.13.308-2.906 1.063-.552.537-.969 1.162-1.25 2-.62 1.849-.405 4.031.531 5.438.164.247.296.389.5.594.284.285.537.484.875.656.577.294 1.162.423 1.875.406.569-.013 1.036-.132 1.531-.344.541-.231 1.092-.616 1.438-1.063l.094-.125c.015 0 .031.094.031.531 0 .796-.026 1.178-.125 1.594-.305 1.277-1.134 2.045-2.344 2.219-.329.047-.931.035-1.344-.031l-.156-.031v.75c0 .707.008.774.031.781h.219l.219.031c.093.011.976-.016 1.125-.031.817-.082 1.381-.227 1.938-.5 1.336-.654 2.047-1.877 2.156-3.75.009-.15 0-2.073 0-5.094v-4.844h-1.5939999999999999v.719c0 .837.009.829-.094.625-.164-.327-.422-.654-.688-.875-.515-.428-1.178-.665-2.063-.719zm.094 1.469c.127.006.277.036.406.063.644.132 1.181.542 1.563 1.156.334.538.545 1.231.625 2.063.026.275.03.868 0 1.094-.11.843-.409 1.512-.906 2.031-.42.439-.927.706-1.5.781-.175.023-.435.02-.594 0-.563-.072-1.106-.372-1.5-.844-.786-.942-1.052-2.457-.688-3.906.264-1.047.823-1.868 1.531-2.219.324-.16.683-.238 1.063-.219z" fill="#900"/><path d="M46.875 88.969c-.886.059-1.681.35-2.344.875-.186.147-.506.435-.656.625-.55.693-.904 1.624-1.031 2.625-.105.825-.063 1.863.125 2.688.139.609.388 1.201.688 1.656.755 1.146 1.988 1.788 3.594 1.875.907.049 1.774-.06 2.531-.313.217-.073.825-.294.844-.313v-1.812l-.094.063c-.507.37-1.42.719-2.156.844l-.406.063c-.877.068-1.744-.271-2.375-.906-.568-.571-.896-1.36-.938-2.219l-.031-.188h6.718999999999999v-.375c-.04-1.679-.405-2.968-1.063-3.844-.141-.188-.432-.466-.594-.594-.523-.411-1.16-.672-1.906-.75-.316-.033-.611-.02-.906 0zm.438 1.438c.306.02.593.124.844.25.783.393 1.292 1.233 1.344 2.313v.219h-4.876l.031-.094.031-.281c.213-1.182.832-1.998 1.719-2.281.284-.091.6-.145.906-.125z" fill="#900"/><path d="M64.969 88.938c-.447-.011-.882.054-1.313.156-1.44.341-2.561 1.302-3.156 2.719-.198.473-.332.983-.406 1.594-.036.298-.036 1.118 0 1.406.135 1.079.487 1.968 1.094 2.75.153.197.555.627.75.781.337.268.842.549 1.219.688.433.16.891.25 1.344.281.227.016.665-.004.906-.031 1.747-.198 3.184-1.332 3.844-3.063.338-.888.442-1.93.313-2.938-.134-1.045-.503-1.944-1.094-2.688-.143-.18-.504-.51-.688-.656-.433-.344-.98-.631-1.5-.781-.425-.123-.866-.208-1.313-.219zm-.344 1.5c.325-.028.712-.011 1.031.094.675.222 1.236.731 1.625 1.469.515.977.648 2.27.344 3.438-.178.685-.517 1.24-.938 1.656-.404.401-.849.635-1.406.719-.184.028-.544.048-.719.031-.948-.091-1.674-.618-2.156-1.531-.233-.441-.427-1.024-.5-1.625-.029-.237 0-.93.031-1.156.133-.953.457-1.718 1-2.281.472-.49 1.021-.755 1.688-.813z" fill="#900"/><path d="M8.245 98.433l-.806-2.372-1.271-3.737-.878-2.58-.19-.564.949-.004h.949l.015.046.286.911.98 3.12.82 2.609c.419 1.334.44 1.397.461 1.397l.093-.23.591-1.84.567-1.766.26-.808.511-1.588.447-1.39.146-.454.866-.003.866.003-.434 1.28-.551 1.621c-.098.291-1.032 3.034-1.953 5.736l-.328.968-.101.301h-2.07l-.222-.656z" fill="#900"/><path d="M15.721 94.133v-4.956h1.73v9.912h-1.73v-4.956z" fill="#900"/><path d="M32.128 94.133v-4.956h1.674v.788c0 .624.004.787.018.783l.099-.159c.275-.517.756-.97 1.34-1.262.524-.262 1.061-.383 1.691-.382 2.142.005 3.31 1.248 3.474 3.698.009.132.014 1.394.014 3.329v3.116h-1.73v-2.698c0-1.579-.006-2.827-.014-3.01-.055-1.214-.268-1.956-.694-2.421-.313-.341-.822-.543-1.362-.54-.891.006-1.615.403-2.104 1.154-.364.56-.594 1.373-.661 2.338-.009.126-.014 1.172-.014 2.691v2.485h-1.73v-4.956z" fill="#900"/><path d="M53.584 94.133v-4.956h1.63v.766c0 .495.005.766.014.766l.072-.117c.303-.607.811-1.121 1.381-1.4.295-.144.539-.213.855-.243.321-.031.964.031 1.283.124.023.007.025.058.025.823 0 .772-.002.815-.025.806-.171-.072-.375-.124-.589-.15-.088-.011-.239-.014-.411-.009-.297.009-.411.028-.641.11-.972.345-1.628 1.439-1.807 3.014-.05.438-.057.837-.057 3.165v2.258h-1.73v-4.956z" fill="#900"/><path d="M71.282 94.133v-4.956h1.674v.787c0 .62.004.787.018.787l.081-.121c.389-.748 1.143-1.322 2.048-1.559.496-.13.97-.161 1.533-.098.617.069 1.169.271 1.591.584.154.114.452.41.566.563.411.551.662 1.275.765 2.205.043.391.05.899.05 3.825v2.939h-1.744v-2.79c0-1.658-.006-2.891-.014-3.038-.067-1.184-.292-1.9-.735-2.341-.2-.199-.396-.317-.662-.401-.375-.118-.744-.132-1.177-.045-1.245.249-2.02 1.34-2.211 3.112-.045.421-.05.721-.05 3.102v2.4h-1.73v-4.956z" fill="#900"/><path d="M15.706 87.198v-1h1.758v2h-1.758v-1z" fill="#900"/><path d="M35.482 82.435c-1.827-.655-3.521-1.889-4.936-3.596-.928-1.119-1.756-2.474-2.35-3.843-.131-.302-.307-.752-.312-.798-.003-.026.085-.058.882-.324l.888-.292.112.277c.479 1.204 1.231 2.5 2.052 3.541 1.23 1.559 2.644 2.64 4.241 3.241l.205.076c.018.006-.576 1.769-.598 1.775l-.184-.057z" fill="#900"/><path d="M49.394 78.37c-.317-.018-.665-.051-.964-.093-.272-.038-.745-.128-.762-.145-.01-.01.456-1.793.473-1.809l.17.027c.204.043.491.085.793.117.299.031 1.399.036 1.709.007 1.129-.105 2.11-.344 3.12-.761.3-.124.962-.454 1.255-.625.32-.187.792-.502 1.099-.733.495-.372.864-.696 1.35-1.184l.343-.345.688.633.688.633-.029.037c-.054.07-.672.686-.878.875-.965.883-1.997 1.593-3.106 2.136-1.423.697-2.895 1.093-4.531 1.218-.271.021-1.14.029-1.418.013z" fill="#900"/><path d="M41.14 72.5c-2.285-.066-4.315-.364-6.218-.913-2.237-.645-4.277-1.685-5.534-2.822l-.116-.143-.022-.398-.04-.567c-.043-.381-.029-3.063.026-4.822.271-8.673 1.474-16.572 3.496-22.938 1.324-4.171 2.989-7.558 4.806-9.776.382-.467.904-1.02 1.285-1.362 1.072-.964 2.114-1.526 3.245-1.751.657-.131 1.507-.151 2.363-.057.41.045 1.209.186 1.284.226l.119.18c.213.369.521.803.828 1.167.198.235.671.707.91.908 1.245 1.048 2.693 1.676 4.286 1.858 1.376.157 2.798-.052 4.059-.598 2.555-1.106 4.36-3.45 4.77-6.195l.038-.149.464 1.113.453 1.085-.002.234c-.014 1.534-.445 3.199-1.188 4.588-1.263 2.36-3.357 4.119-5.88 4.941-1.356.442-2.809.595-4.2.442l-.233-.02c-.009.008.056.169.385.941.621 1.459.559 1.298.776 2.02 1.427 4.752 2.461 10.583 2.985 16.84.195 2.325.305 4.392.377 7.069.023.865.034 3.652.015 3.879l-.029.34-.03.489-.017.34-.045.048-.201.183c-.909.786-2.25 1.555-3.73 2.138-2 .788-4.311 1.275-6.8 1.432-.812.051-1.933.072-2.687.05z" fill="#900"/><path d="M34.362 30.809c-.867-.321-1.588-.646-2.333-1.048-2.786-1.506-4.856-3.651-5.988-6.207-.821-1.852-1.137-3.898-.924-5.977.255-2.488 1.306-4.808 3.042-6.715.242-.266.809-.823 1.063-1.045 2.22-1.941 5.086-3.26 8.438-3.882.962-.179 1.917-.289 3.084-.358.412-.024 2.583-.024 3.134 0 2.167.095 3.424.294 5.076.804l.056.017-.092.04c-.472.207-1.043.562-1.539.956l-.171.136-.184-.039c-.263-.056-.818-.147-1.141-.188-.875-.11-1.627-.155-3.004-.179-1.173-.021-2.052.003-2.902.08-3.345.299-6.281 1.306-8.615 2.953-.322.227-.917.693-.903.707l.309-.065c3.471-.802 7.603-1.07 11.825-.766.835.06 2.348.216 2.377.245l-.096.196c-.189.347-.373.74-.593 1.268l-.012.029-.303-.032c-.679-.072-1.569-.142-2.31-.181-.898-.048-1.282-.057-2.439-.057-1.16 0-1.506.008-2.39.057-3.008.166-5.71.646-8.124 1.442l-.31.102-.095.142c-.615.919-1.092 2.008-1.367 3.12-.073.295-.07.274-.041.282l.351.057c3.313.507 7.349.64 11.834.39 1.251-.07 2.78-.194 3.89-.316l.298-.025-.01.355c-.011.282-.009.424.011.752l.024.433c0 .033.064.024-.731.106-1.65.17-3.483.294-5.254.354-3.776.128-7.333-.044-10.267-.497l-.37-.056c-.024 0-.045.513-.037.9.02 1.023.177 1.927.508 2.921l.125.359c.024.039 1.023.354 1.604.506 2.725.714 5.887.952 9.289.702 1.889-.139 3.907-.437 5.552-.821l.301-.066c.004.004.301 1.505.301 1.523l-.131.044c-2.107.502-4.378.825-6.69.951-.855.046-2.292.06-3.07.029-2.156-.086-4.01-.344-5.839-.814l-.294-.069c0 .014.23.34.397.563 1.25 1.666 3.046 3.044 5.233 4.013.444.197 1.18.479 1.588.61l.09.036-.136.215c-.183.252-.477.681-.636.93l-.141.187-.319-.111z" fill="#900"/><path d="M52.294 29.487c-2.207-.174-4.15-1.503-5.106-3.494-.557-1.16-.737-2.462-.516-3.737.268-1.541 1.129-2.939 2.396-3.888.521-.39 1.135-.71 1.76-.917 1.412-.467 2.981-.401 4.347.183.731.312 1.335.718 1.911 1.282.511.501.885 1.014 1.206 1.653.523 1.044.736 2.21.617 3.382-.186 1.828-1.187 3.488-2.722 4.514-.894.597-1.905.942-2.998 1.024-.221.016-.676.016-.893-.002z" fill="#900"/><path d="M45.411 20.064c-.015-.051-.109-.594-.143-.836-.102-.706-.129-1.096-.128-1.872 0-.676.01-.891.065-1.439.288-2.855 1.453-5.417 3.122-6.867.806-.701 1.658-1.115 2.593-1.261.277-.043.958-.047 1.225-.007.932.14 1.733.513 2.546 1.185.201.166.628.591.814.81 1.022 1.201 1.785 2.847 2.177 4.694.152.718.245 1.452.285 2.241.015.306.018.525.007.525l-.138-.109c-.463-.386-1.021-.742-1.604-1.026-.843-.41-1.695-.653-2.66-.76-.333-.037-1.312-.037-1.624 0-1.027.121-1.862.362-2.716.784-1.617.799-2.908 2.101-3.695 3.728l-.124.213z" fill="#900"/></svg>