<?xml version="1.0" encoding="utf-8"?>
<!-- Generator: Adobe Illustrator 16.0.0, SVG Export Plug-In . SVG Version: 6.00 Build 0)  -->
<!DOCTYPE svg PUBLIC "-//W3C//DTD SVG 1.1//EN" "http://www.w3.org/Graphics/SVG/1.1/DTD/svg11.dtd">
<svg version="1.1" id="Layer_1" xmlns="http://www.w3.org/2000/svg" xmlns:xlink="http://www.w3.org/1999/xlink" x="0px" y="0px"
	 width="119.001px" height="26px" viewBox="0 0 119.001 26" enable-background="new 0 0 119.001 26" xml:space="preserve">
<path fill-rule="evenodd" clip-rule="evenodd" fill="#7A7A7A" d="M113.001,26.002H6c-3.313,0-6-2.687-6-6.002V6.001
	C0,2.687,2.687,0,6,0h107.001c3.312,0,6,2.687,6,6.001V20C119.001,23.315,116.314,26.002,113.001,26.002L113.001,26.002z M118,6.001
	c0-2.762-2.238-5-4.998-5H6c-2.761,0-4.999,2.238-4.999,5V20c0,2.762,2.238,5.001,4.999,5.001h107.001
	c2.76,0,4.998-2.239,4.998-5.001V6.001L118,6.001z"/>
<path fill="#7A7A7A" d="M12.452,13.852h-0.735v3.159h-1.642V8.427h2.514c1.965,0,3.148,0.909,3.148,2.638
	C15.737,12.919,14.417,13.852,12.452,13.852L12.452,13.852z M12.502,9.745h-0.785v2.776h0.723c1.058,0,1.679-0.437,1.679-1.419
	C14.119,10.206,13.558,9.745,12.502,9.745L12.502,9.745z M19.161,17.136c-1.629,0-2.811-1.17-2.811-3.122
	c0-1.954,1.194-3.135,2.824-3.135c1.642,0,2.836,1.182,2.836,3.135C22.01,15.966,20.803,17.136,19.161,17.136L19.161,17.136z
	 M19.161,12.097c-0.883,0-1.354,0.796-1.354,1.917c0,1.095,0.484,1.902,1.354,1.902c0.922,0,1.394-0.783,1.394-1.902
	C20.554,12.906,20.057,12.097,19.161,12.097L19.161,12.097z M29.392,17.023h-1.368l-1.108-3.968l-1.082,3.968h-1.369l-1.792-5.909
	l1.519-0.199l1.056,4.068l1.083-3.981h1.318l1.082,3.968l1.034-3.968h1.417L29.392,17.023L29.392,17.023z M37.172,14.3h-3.869
	c0.074,1.182,0.709,1.679,1.629,1.679c0.772,0,1.406-0.285,2.066-0.746l0.173,1.17c-0.647,0.448-1.43,0.733-2.401,0.733
	c-1.679,0-2.937-0.958-2.937-3.122c0-1.954,1.17-3.135,2.737-3.135c1.804,0,2.613,1.355,2.613,3.06
	C37.185,14.063,37.172,14.213,37.172,14.3L37.172,14.3z M34.535,11.911c-0.597,0-1.095,0.485-1.207,1.457h2.401
	C35.63,12.433,35.257,11.911,34.535,11.911L34.535,11.911z M40.012,13.565v3.445h-1.493v-6.008h1.27l0.186,1.207
	c0.398-0.697,0.996-1.281,1.928-1.331l0.237,1.48C41.207,12.421,40.436,12.919,40.012,13.565L40.012,13.565z M48.077,14.3h-3.869
	c0.074,1.182,0.708,1.679,1.629,1.679c0.771,0,1.406-0.285,2.064-0.746l0.175,1.17c-0.647,0.448-1.43,0.733-2.401,0.733
	c-1.679,0-2.937-0.958-2.937-3.122c0-1.954,1.17-3.135,2.737-3.135c1.804,0,2.613,1.355,2.613,3.06
	C48.09,14.063,48.077,14.213,48.077,14.3L48.077,14.3z M45.439,11.911c-0.597,0-1.095,0.485-1.207,1.457h2.401
	C46.534,12.433,46.16,11.911,45.439,11.911L45.439,11.911z M53.355,17.011l-0.124-0.833c-0.424,0.511-1.008,0.958-1.841,0.958
	c-1.257,0-2.265-0.933-2.265-2.962c0-2.239,1.231-3.234,2.625-3.234c0.573,0,1.034,0.1,1.394,0.225V8.265l1.493-0.236v8.981H53.355
	L53.355,17.011z M53.144,12.396c-0.373-0.173-0.658-0.262-1.169-0.262c-0.783,0-1.356,0.636-1.356,1.954
	c0,1.17,0.498,1.718,1.158,1.718c0.547,0,0.97-0.324,1.368-0.822V12.396L53.144,12.396z M61.535,17.086
	c-0.933,0-1.716-0.149-2.463-0.397V8.265l1.493-0.236v3.646c0.385-0.398,0.945-0.796,1.703-0.796c1.27,0,2.265,0.946,2.265,2.96
	C64.533,16.054,63.326,17.086,61.535,17.086L61.535,17.086z M61.882,12.196c-0.497,0-0.945,0.336-1.317,0.784v2.726
	c0.31,0.11,0.521,0.16,0.945,0.16c0.945,0,1.517-0.571,1.517-1.94C63.027,12.77,62.555,12.196,61.882,12.196L61.882,12.196z
	 M68.693,17.397c-0.511,1.443-1.208,1.879-2.29,1.879c-0.324,0-0.473-0.024-0.609-0.063l-0.199-1.255
	c0.187,0.05,0.398,0.087,0.66,0.087c0.472,0,0.82-0.199,1.056-0.76l0.089-0.249l-2.179-5.922l1.556-0.199l1.394,4.267l1.319-4.18
	h1.504L68.693,17.397L68.693,17.397z"/>
<path fill-rule="evenodd" clip-rule="evenodd" fill="#7A7A7A" d="M110.782,14.964h-4.217c0.051,0.521,0.205,0.735,0.472,0.962
	c0.247,0.215,0.586,0.317,1.077,0.317c0.82,0,1.549-0.185,2.176-0.523l0.275,1.744c-0.636,0.42-1.641,0.677-2.728,0.677
	c-1.18,0-2.093-0.308-2.729-0.923c-0.708-0.687-1.066-1.764-1.066-3.201c0-2.563,1.344-4.164,3.508-4.164
	c1.057,0,1.888,0.369,2.441,1.086c0.543,0.708,0.82,1.87,0.82,3.142C110.812,14.266,110.792,14.841,110.782,14.964L110.782,14.964z
	 M107.508,11.575c-0.584,0-0.893,0.69-0.963,1.828h1.877C108.38,12.275,108.083,11.575,107.508,11.575L107.508,11.575z
	 M99.674,18.141c-0.359,0-0.759-0.062-1.149-0.185v2.596l-2.542,0.421V10.007h2.236l0.133,0.799
	c0.605-0.645,1.251-0.953,1.989-0.953c0.801,0,1.425,0.287,1.878,0.872c0.512,0.656,0.769,1.682,0.769,3.035
	c0,1.528-0.348,2.689-1.037,3.438C101.234,17.978,100.31,18.141,99.674,18.141L99.674,18.141z M99.49,11.792
	c-0.145,0-0.532,0.051-0.965,0.502v3.795c0.206,0.103,0.433,0.153,0.688,0.153c0.369,0,0.688-0.205,0.893-0.596
	c0.236-0.409,0.35-1.014,0.35-1.794C100.455,12.489,100.135,11.792,99.49,11.792L99.49,11.792z M93.522,8.936
	c-0.75,0-1.344-0.605-1.344-1.344c0-0.75,0.594-1.343,1.344-1.343c0.738,0,1.332,0.594,1.332,1.343
	C94.854,8.331,94.26,8.936,93.522,8.936L93.522,8.936z M89.57,12.807v5.18h-2.545v-7.979h2.227l0.152,0.944
	c0.227-0.677,0.676-1.055,1.394-1.055c0.154,0,0.309,0.021,0.483,0.061v2.35c-0.175-0.03-0.319-0.03-0.453-0.03
	C90.213,12.277,89.887,12.417,89.57,12.807L89.57,12.807z M84.603,11.895v3.333c0,0.584,0.215,0.841,0.717,0.841
	c0.236,0,0.585-0.072,0.738-0.112v2c-0.275,0.072-0.677,0.185-1.332,0.185c-0.853,0-1.457-0.163-1.878-0.502
	c-0.503-0.411-0.748-1.077-0.748-2.042v-3.702h-1.146l0.381-1.764l0.769-0.124l0.314-1.933l2.186-0.358v2.291h1.624l-0.308,1.888
	H84.603L84.603,11.895z M78.477,13.012c1.404,0.503,2.276,1.099,2.276,2.523c0,0.862-0.297,1.528-0.872,1.979
	c-0.512,0.411-1.271,0.626-2.185,0.626c-1.149,0-2.257-0.348-2.852-0.687l0.307-1.919c0.698,0.41,1.765,0.729,2.411,0.729
	c0.523,0,0.811-0.196,0.811-0.535c0-0.348-0.297-0.574-1.189-0.893c-1.385-0.502-2.235-1.096-2.235-2.491
	c0-0.771,0.275-1.406,0.809-1.846c0.514-0.42,1.231-0.646,2.094-0.646c1.22,0,1.915,0.338,2.345,0.544l-0.307,1.897
	c-0.544-0.267-1.146-0.565-1.915-0.565c-0.421,0-0.656,0.165-0.656,0.451C77.318,12.519,77.727,12.734,78.477,13.012L78.477,13.012z
	 M94.793,17.986h-2.555v-7.979h2.555V17.986L94.793,17.986z"/>
</svg>
